<?xml version="1.0" standalone="no"?>
<!DOCTYPE svg PUBLIC "-//W3C//DTD SVG 20010904//EN"
 "http://www.w3.org/TR/2001/REC-SVG-20010904/DTD/svg10.dtd">
<svg version="1.0" xmlns="http://www.w3.org/2000/svg"
 width="1920.000000pt" height="1200.000000pt" viewBox="0 0 1920.000000 1200.000000"
 preserveAspectRatio="xMidYMid meet">

<g transform="translate(0.000000,1200.000000) scale(0.100000,-0.100000)"
fill="#000000" stroke="none">
<path d="M12086 10313 c-21 -21 -39 -87 -43 -164 -5 -77 -3 -92 18 -134 13
-27 36 -57 52 -68 15 -12 27 -24 27 -28 0 -4 -30 -10 -66 -14 -77 -8 -202 -44
-262 -74 -23 -12 -48 -21 -56 -21 -8 0 -58 -30 -112 -67 -106 -74 -210 -180
-283 -288 -25 -38 -49 -72 -53 -75 -4 -3 -20 13 -36 36 -63 86 -261 256 -360
307 -37 19 -114 49 -172 66 -58 18 -126 41 -152 51 -26 11 -61 20 -79 20 -32
0 -32 1 50 76 79 73 108 110 98 121 -3 3 -35 -7 -72 -22 -36 -14 -125 -37
-198 -51 -73 -14 -163 -33 -202 -43 -38 -10 -101 -24 -140 -31 -109 -18 -144
-29 -228 -67 l-78 -36 -37 36 c-83 81 -352 158 -459 131 -70 -17 -51 -34 180
-159 l78 -42 -99 -11 c-123 -14 -308 -69 -420 -125 -46 -23 -119 -70 -162
-104 -43 -35 -83 -63 -88 -63 -6 0 -24 22 -40 48 -67 109 -244 251 -387 310
-55 23 -239 47 -285 37 -17 -4 -54 2 -93 14 -36 11 -105 23 -154 27 -48 3
-101 12 -118 19 -20 8 -50 9 -90 4 -33 -4 -103 -8 -155 -8 -116 -1 -254 -23
-329 -51 -90 -35 -155 -62 -171 -71 -8 -5 -93 -48 -188 -95 -95 -48 -175 -91
-178 -95 -3 -5 -20 -15 -37 -23 -31 -12 -352 -311 -371 -345 -5 -9 -16 -22
-23 -29 -7 -7 -13 -19 -13 -25 0 -7 -13 -28 -29 -47 -36 -44 -156 -238 -165
-268 -4 -12 -18 -34 -30 -50 -24 -28 -119 -211 -225 -432 -80 -167 -93 -198
-105 -245 -4 -16 -16 -52 -26 -80 -36 -96 -90 -428 -90 -553 0 -175 43 -344
114 -451 26 -39 52 -71 57 -71 5 0 9 -6 9 -13 0 -18 38 -51 75 -65 17 -6 60
-14 98 -18 60 -6 67 -9 67 -28 0 -12 -14 -96 -30 -186 -17 -91 -35 -194 -40
-230 -5 -36 -12 -74 -14 -85 -38 -169 -76 -520 -76 -706 0 -163 52 -435 85
-446 6 -2 11 55 12 155 2 148 25 363 57 527 14 77 18 73 37 -29 6 -38 18 -81
25 -95 8 -14 14 -32 14 -39 0 -7 13 -38 28 -70 28 -56 28 -58 15 -122 -8 -36
-16 -76 -18 -90 -2 -14 -11 -65 -20 -115 -9 -49 -27 -155 -40 -235 -39 -246
-104 -537 -125 -565 -10 -13 -24 -76 -21 -93 3 -19 -38 -60 -89 -87 -124 -65
-160 -111 -160 -209 0 -54 -1 -56 -37 -75 -21 -10 -67 -47 -103 -80 -65 -62
-142 -108 -235 -142 -27 -10 -106 -39 -175 -64 -160 -59 -315 -111 -360 -120
-30 -6 -70 -23 -235 -100 -60 -28 -272 -133 -295 -146 -13 -8 -33 -24 -44 -37
-19 -20 -229 -125 -281 -140 -32 -9 -122 -79 -219 -170 -135 -126 -230 -167
-486 -212 -36 -6 -72 -12 -80 -12 -16 0 -42 -10 -98 -37 -53 -26 -464 -340
-466 -356 -1 -5 19 -12 43 -15 30 -3 47 -11 55 -25 18 -33 40 -45 68 -40 15 2
30 0 34 -6 3 -6 15 -9 25 -6 10 3 21 1 24 -4 3 -5 21 -16 40 -25 19 -9 35 -23
35 -31 0 -9 6 -12 19 -8 10 3 34 6 54 7 20 1 38 7 41 15 6 15 6 15 -51 4 -35
-7 -45 -5 -59 10 -10 11 -23 19 -30 19 -7 0 -32 13 -55 29 -35 24 -48 27 -72
20 -36 -10 -43 -7 -62 32 -12 22 -22 29 -45 29 -39 0 -38 13 2 38 18 11 61 42
95 68 275 216 348 264 400 264 14 0 42 4 62 10 20 5 87 19 150 31 63 11 121
27 128 35 8 8 21 14 28 14 21 0 87 31 111 52 11 10 43 29 70 43 27 15 40 24
29 21 -32 -9 71 81 168 146 141 95 319 178 380 178 16 0 59 -13 95 -29 37 -16
74 -31 82 -33 11 -3 8 -11 -13 -32 -16 -16 -27 -30 -25 -31 2 -2 23 1 48 6 29
7 66 7 109 0 36 -6 67 -8 70 -6 2 3 -2 5 -10 5 -8 0 -61 23 -117 50 -56 28
-107 50 -112 50 -5 0 -18 9 -28 21 -11 11 -26 19 -33 18 -19 -3 -49 11 -49 23
0 6 7 4 16 -3 15 -12 16 -11 10 8 -6 19 -2 25 31 39 21 9 108 49 193 90 161
75 276 124 294 124 17 0 291 88 376 121 84 32 98 35 81 16 -6 -8 -8 -17 -4
-20 3 -4 2 -7 -3 -7 -10 0 -94 -120 -94 -135 0 -4 18 15 41 44 22 28 44 51 49
51 10 0 109 79 180 144 104 95 125 112 171 134 25 12 48 22 50 22 3 0 6 -21 7
-47 3 -54 29 -204 38 -212 3 -3 1 26 -3 64 -4 39 -7 139 -6 224 l2 154 33 34
c36 37 131 93 159 93 9 0 17 -6 16 -12 0 -7 1 -21 1 -31 2 -17 4 -17 17 -3 13
12 13 19 3 35 -10 16 -10 27 0 54 7 18 12 42 12 53 0 10 12 42 25 69 14 28 25
57 25 65 0 8 13 71 29 140 47 200 59 264 86 460 15 102 33 217 40 255 8 39 30
160 50 270 59 337 105 512 172 659 55 122 147 250 173 243 10 -2 24 0 31 5 10
7 9 8 -5 4 -16 -6 -17 -4 -6 9 7 8 18 14 24 13 6 -1 22 4 36 12 14 7 50 15 80
16 30 1 66 3 80 4 l25 2 -25 8 c-21 7 -22 8 -5 9 11 1 31 8 45 16 l25 14 -24
1 c-13 0 -22 3 -18 6 3 3 20 3 37 -1 29 -6 30 -8 13 -21 -14 -11 -15 -14 -3
-14 8 -1 24 -3 35 -5 11 -3 40 -7 65 -10 64 -8 174 -79 337 -217 31 -27 60
-48 65 -48 17 0 103 -62 135 -98 18 -20 57 -86 88 -147 30 -60 72 -142 93
-181 20 -39 57 -112 81 -162 24 -51 47 -90 51 -87 13 8 33 -24 27 -45 -3 -11
1 -39 8 -62 l14 -43 0 57 c1 71 -26 394 -39 467 -6 30 -10 58 -10 62 0 4 22
-2 49 -14 47 -21 49 -23 43 -56 -4 -24 -2 -32 6 -27 7 4 12 18 12 32 0 20 5
24 30 24 17 0 30 -2 30 -5 0 -3 -11 -32 -25 -65 -34 -80 -33 -173 1 -327 28
-126 32 -230 13 -334 -15 -78 -6 -108 10 -35 14 65 30 106 41 106 14 0 100
-220 100 -256 0 -22 2 -24 14 -15 12 10 20 5 41 -27 23 -36 98 -99 133 -113
23 -9 22 -86 -3 -204 -32 -153 -43 -248 -55 -490 -6 -116 -15 -239 -21 -274
l-12 -65 -23 30 c-13 16 -46 74 -73 129 -40 82 -47 107 -44 140 5 38 4 39 -11
20 -14 -17 -17 -18 -26 -5 -8 12 -10 10 -6 -10 3 -14 15 -74 26 -135 12 -60
25 -119 30 -130 5 -11 18 -49 29 -85 21 -65 21 -65 16 -18 -2 26 -9 56 -14 65
-8 15 -23 78 -47 198 -2 11 9 -7 25 -40 42 -90 99 -173 153 -224 15 -14 34
-43 42 -63 9 -20 21 -40 27 -44 6 -4 29 -43 51 -88 22 -44 37 -72 34 -61 -4
15 0 13 17 -8 12 -16 39 -48 59 -70 52 -58 50 -85 -7 -126 -25 -18 -45 -34
-45 -37 0 -6 15 2 53 30 l27 20 48 -53 c62 -71 61 -69 65 -142 3 -54 11 -77
48 -143 24 -43 54 -94 67 -112 12 -19 22 -41 22 -49 0 -21 -43 -84 -58 -85 -7
0 -30 -9 -52 -20 -46 -23 -144 -37 -162 -23 -13 11 -53 11 -63 1 -3 -3 15 -11
40 -18 33 -9 55 -10 87 -2 34 9 46 8 59 -3 18 -17 39 -20 39 -4 0 5 -4 7 -10
4 -5 -3 -10 -1 -10 4 0 6 6 11 14 11 16 0 29 -27 20 -41 -3 -5 2 -12 10 -15 9
-3 13 -10 10 -16 -4 -6 -47 -7 -108 -4 -72 4 -90 3 -61 -4 82 -18 192 -12 273
16 42 15 84 30 92 34 8 4 28 10 43 14 l28 7 -5 -53 c-2 -29 -18 -104 -35 -166
-17 -62 -31 -118 -30 -125 0 -6 16 40 34 103 19 63 40 134 47 158 l14 42 32
-33 c18 -18 32 -39 32 -45 0 -14 175 -102 203 -102 22 0 22 -3 -9 -69 -69
-148 -61 -138 -159 -190 -44 -24 -88 -52 -97 -63 -25 -28 -22 -71 6 -105 25
-30 87 -56 111 -47 7 3 32 -4 56 -16 32 -17 54 -21 88 -17 33 4 51 1 63 -10 9
-8 39 -17 65 -19 48 -3 48 -3 9 5 -22 5 -49 19 -61 33 -18 21 -25 23 -55 15
-46 -12 -97 0 -126 28 -17 17 -24 20 -24 10 0 -17 -12 -18 -59 -9 -38 8 -63
41 -67 89 -3 40 10 52 121 108 67 33 72 38 99 99 16 34 42 82 57 105 15 22 39
68 54 102 27 60 28 61 69 61 22 0 84 -11 136 -24 52 -13 122 -27 155 -30 51
-6 235 -34 343 -52 l32 -5 -24 -42 c-13 -23 -33 -69 -44 -102 -31 -94 -77
-177 -137 -244 -30 -34 -61 -74 -69 -89 -8 -15 -28 -40 -45 -56 -28 -27 -34
-28 -83 -23 -40 5 -49 4 -34 -5 10 -5 41 -10 69 -10 46 0 54 3 80 33 15 19 31
45 34 59 3 14 25 46 49 72 64 68 109 144 139 233 38 111 60 145 94 145 15 0
31 4 36 9 9 9 118 31 152 31 7 0 33 -26 58 -57 70 -85 126 -101 376 -109 140
-5 192 -3 254 10 42 9 79 16 80 16 2 0 6 -13 10 -29 7 -35 36 -61 93 -86 43
-18 78 -17 309 10 40 4 99 -13 205 -62 l83 -38 145 0 145 1 35 -42 c19 -24 39
-43 44 -43 5 -1 33 -21 63 -45 48 -40 66 -47 167 -71 137 -32 200 -42 331 -55
129 -13 390 -13 480 -1 182 26 215 32 280 53 60 20 80 33 135 88 92 92 120
128 146 188 13 28 26 52 29 52 8 0 41 -35 47 -51 3 -8 26 -40 52 -71 25 -31
46 -61 46 -66 0 -6 30 -22 68 -37 37 -15 72 -31 79 -37 31 -25 159 -78 214
-88 114 -21 442 -8 504 20 11 5 45 16 75 25 30 10 69 25 87 36 18 10 76 34
129 54 54 20 120 47 148 61 51 24 145 47 249 59 31 3 57 10 57 14 0 4 15 5 34
3 36 -4 80 14 136 58 l35 27 92 -16 c92 -15 92 -15 134 8 46 26 37 26 222 -10
64 -12 158 -11 237 4 l65 12 3 55 c2 30 7 57 12 60 11 7 -4 82 -25 127 -8 17
-15 35 -15 41 0 29 -44 111 -66 121 -13 6 -24 15 -24 20 0 18 -122 98 -232
152 -101 50 -107 55 -129 102 -33 71 -59 87 -134 87 -50 0 -74 6 -118 29 -66
35 -139 60 -193 66 -21 2 -55 7 -74 11 -23 4 -49 0 -74 -10 -21 -9 -51 -16
-66 -16 -27 0 -28 3 -35 62 -8 67 -29 128 -45 128 -6 0 -10 7 -10 15 0 8 7 15
15 15 21 0 19 6 -15 53 -39 55 -76 149 -109 272 l-26 100 23 45 c33 65 29 89
-20 136 -24 21 -62 52 -85 68 -65 43 -68 50 -42 85 14 19 20 37 16 53 -4 13
-43 85 -87 160 -44 76 -80 142 -80 148 0 6 -13 30 -29 53 -33 48 -45 101 -100
417 l-39 225 5 262 c4 175 2 267 -5 275 -5 7 -24 90 -41 183 -17 94 -40 197
-50 230 -79 253 -107 335 -127 371 -13 22 -59 72 -101 109 -163 145 -223 208
-218 226 4 10 -14 80 -40 156 -66 200 -68 218 -39 329 38 153 41 190 14 226
l-22 30 27 69 c15 38 29 87 32 109 3 22 9 40 12 40 4 0 13 -35 20 -77 21 -125
34 -173 47 -173 21 0 26 48 29 290 4 248 -13 502 -39 620 -28 119 -53 259 -49
264 3 2 13 -4 23 -14 29 -29 88 -42 135 -29 50 14 114 51 145 84 27 29 22 42
-10 25 -14 -7 -54 -11 -105 -8 -74 3 -92 7 -161 44 l-79 40 -36 105 c-19 57
-46 127 -58 154 -17 37 -26 78 -31 156 -9 122 -24 164 -96 266 -56 78 -80 102
-149 147 -83 55 -114 61 -275 59 -135 -2 -150 0 -215 24 -38 15 -74 30 -80 34
-5 3 -41 14 -80 24 -109 27 -308 15 -427 -26 l-88 -31 -43 21 c-24 12 -58 36
-77 53 -45 44 -90 142 -90 196 0 23 -4 42 -10 42 -13 0 -13 -1 5 -84 23 -108
73 -173 171 -220 l51 -24 59 19 c32 11 93 24 134 30 41 6 88 14 103 19 16 5
38 5 50 1 12 -5 49 -9 82 -10 70 -2 145 -20 235 -57 62 -25 73 -26 222 -25
l156 2 64 -31 c79 -39 146 -102 210 -199 60 -91 78 -152 78 -256 0 -72 4 -91
34 -156 34 -75 72 -178 78 -213 3 -20 47 -49 128 -88 32 -15 71 -23 132 -26
48 -2 85 -8 82 -13 -3 -5 -28 -21 -56 -35 -59 -30 -101 -27 -185 12 -28 13
-54 24 -57 24 -3 0 1 -17 9 -37 43 -114 95 -553 95 -803 0 -370 -27 -433 -51
-120 -15 198 -21 250 -30 250 -5 0 -9 -35 -9 -77 0 -43 -4 -104 -9 -135 -16
-94 -53 -221 -61 -208 -6 9 -10 8 -17 -4 -9 -16 -11 -16 -23 -1 -9 11 -10 19
-3 23 5 4 13 14 16 22 4 12 6 11 6 -2 1 -10 4 -18 9 -18 4 0 8 29 8 65 1 36
-2 62 -7 59 -5 -3 -9 -15 -9 -26 0 -20 -79 -192 -85 -186 -2 2 1 23 5 48 9 46
5 498 -5 508 -3 3 -5 -93 -6 -214 -1 -120 -4 -257 -7 -304 l-7 -85 -19 67
c-19 65 -35 80 -37 35 0 -21 -1 -21 -9 -2 -6 17 -8 14 -12 -15 l-5 -35 -2 35
c-2 30 -4 32 -12 15 -7 -15 -8 -12 -4 15 2 19 6 103 9 185 4 139 4 143 -4 50
-22 -236 -30 -281 -64 -374 -32 -88 -50 -120 -60 -110 -6 6 -28 149 -27 177 1
41 -18 22 -34 -35 -9 -32 -23 -65 -31 -73 -43 -47 -103 -130 -93 -130 6 0 31
18 57 40 25 22 47 38 50 35 2 -2 13 0 23 5 15 8 20 4 30 -25 7 -19 18 -35 24
-35 7 0 25 26 41 58 21 40 35 56 47 54 9 -2 17 0 17 5 0 5 13 24 28 42 25 31
30 33 49 20 12 -7 24 -21 26 -31 6 -22 27 -24 27 -3 0 27 34 86 46 81 7 -3 31
-10 53 -16 40 -10 41 -12 41 -54 0 -50 -32 -181 -60 -247 -22 -51 -102 -185
-153 -253 -18 -24 -60 -82 -95 -129 -81 -110 -166 -197 -192 -197 -5 0 -10 -4
-10 -9 0 -17 -104 -51 -400 -132 -47 -12 -90 -27 -97 -32 -12 -9 -45 -13 -189
-21 -72 -5 -96 -1 -200 28 -127 37 -174 53 -174 60 0 2 15 0 33 -4 52 -14 208
-20 272 -9 33 5 97 12 143 15 80 7 96 16 71 41 -8 8 -8 13 0 17 6 4 11 0 11
-8 0 -22 22 -20 50 4 13 11 29 20 37 20 7 0 13 5 13 10 0 6 -8 10 -17 10 -15
0 -16 2 -3 10 12 8 12 10 1 10 -22 0 -6 11 21 14 115 15 163 35 139 59 -7 7
-34 2 -83 -14 -64 -21 -90 -24 -203 -22 -71 1 -170 7 -220 13 -49 7 -112 14
-140 16 -27 2 -106 9 -175 14 -114 10 -173 18 -375 50 -90 15 -132 39 -176
103 -42 60 -103 171 -114 205 l-7 24 28 -19 c16 -10 29 -17 31 -15 2 1 4 2 6
1 36 -11 47 -7 47 15 0 14 -4 28 -10 31 -17 11 -11 24 15 31 14 3 25 10 25 14
0 5 -11 17 -25 28 -14 11 -25 23 -25 26 0 15 22 3 62 -34 23 -22 55 -47 71
-56 l27 -15 0 51 c0 27 -4 50 -10 50 -5 0 -10 10 -10 23 l0 22 19 -25 c11 -13
18 -27 15 -31 -2 -4 3 -12 11 -19 13 -11 15 -8 15 15 0 26 2 27 38 22 l37 -6
-35 11 c-45 15 -43 12 -51 61 l-6 42 -3 -50 -2 -50 -24 53 c-26 53 -59 73 -50
30 12 -61 15 -108 7 -108 -17 0 -91 94 -121 155 l-31 60 6 -50 5 -50 -41 80
c-23 44 -44 74 -46 67 -3 -6 -8 -10 -13 -7 -4 3 -2 -15 5 -38 7 -24 16 -75 20
-113 l7 -69 -25 36 c-50 70 -99 175 -117 249 -10 41 -19 71 -19 65 -1 -5 -8
-73 -16 -150 -8 -77 -15 -150 -15 -162 0 -13 -3 -23 -8 -23 -20 0 -51 117 -81
310 l-9 55 1 -70 c1 -65 -2 -77 -53 -180 -62 -127 -102 -189 -127 -200 -10 -4
-43 -11 -73 -16 l-55 -8 62 3 c49 2 68 8 97 30 22 16 41 24 49 19 6 -4 15 -8
20 -9 4 -1 9 -3 12 -4 3 -1 8 -3 13 -4 20 -5 111 -57 118 -68 5 -8 2 -9 -10
-5 -11 4 -15 3 -11 -4 4 -6 -1 -16 -11 -23 -11 -8 -15 -21 -12 -34 3 -12 1
-23 -6 -25 -7 -3 -2 -13 12 -27 28 -27 25 -66 -8 -108 -23 -28 -250 -173 -261
-167 -4 3 0 24 8 46 14 42 11 75 -6 64 -10 -6 -26 12 -26 30 0 5 -8 11 -18 13
-12 3 -22 -7 -32 -32 -22 -51 -230 -283 -308 -341 -79 -60 -230 -146 -237
-136 -3 4 -32 17 -65 30 -33 12 -74 29 -90 37 -17 8 -41 16 -53 17 -12 1 -22
2 -22 3 0 2 77 53 170 115 94 62 170 116 170 121 0 13 -16 9 -41 -11 -54 -42
-80 -48 -289 -76 -258 -34 -642 -28 -740 11 -32 13 -44 14 -53 5 -9 -9 -8 -14
3 -21 33 -21 146 -50 253 -65 151 -21 227 -36 227 -44 0 -11 -64 -31 -119 -38
-28 -3 -48 -9 -46 -13 3 -5 -23 -11 -58 -15 -34 -3 -78 -11 -97 -16 -26 -7
-57 -3 -133 16 -100 26 -197 33 -197 15 0 -5 6 -10 14 -10 8 0 17 -4 20 -9 5
-8 -35 -4 -64 6 -19 7 -25 8 -140 22 -52 7 -107 16 -122 21 -17 5 -30 5 -33
-1 -9 -14 -83 28 -90 51 -4 11 -10 18 -15 15 -10 -6 -60 62 -60 81 0 6 -7 17
-15 24 -8 7 -15 23 -15 35 0 13 -5 25 -10 27 -6 2 -18 30 -26 63 -8 33 -21 65
-28 70 -19 15 -54 114 -57 165 -8 130 -2 137 131 155 57 8 109 20 114 25 15
15 36 12 36 -6 0 -9 -17 -23 -40 -32 -22 -9 -42 -24 -45 -33 -7 -22 4 -49 21
-49 8 0 14 -4 14 -8 0 -13 115 -67 205 -96 111 -36 118 -31 10 7 -114 41 -115
43 -161 285 -2 12 -10 22 -17 22 -7 0 -26 13 -42 30 l-28 30 13 69 c7 39 17
68 21 65 4 -2 -3 26 -16 63 -29 83 -75 301 -74 346 1 27 2 26 9 -13 4 -25 14
-61 22 -80 8 -20 18 -57 22 -84 4 -26 19 -83 33 -125 13 -42 23 -88 20 -103
-2 -16 0 -28 3 -28 9 0 20 77 20 133 0 59 67 337 83 349 7 4 6 27 -2 65 -7 32
-15 126 -18 208 -4 124 -1 172 16 279 12 70 26 136 32 145 13 21 2 -80 -14
-129 -18 -53 -16 -398 3 -482 8 -38 18 -68 23 -68 4 0 5 -4 2 -10 -3 -5 -1
-18 4 -27 6 -11 11 -13 11 -5 0 7 4 11 9 8 5 -4 14 18 20 46 23 108 141 458
163 483 4 5 8 -10 8 -35 0 -67 22 -220 31 -220 5 0 9 98 9 218 0 152 4 242 15
297 24 125 118 357 155 380 17 11 11 -9 -19 -66 -78 -144 -122 -314 -120 -464
1 -61 3 -67 12 -42 6 15 14 27 18 27 4 0 11 24 15 53 7 50 8 60 12 99 1 10 8
15 16 12 9 -3 15 4 18 21 6 27 -7 44 -15 23 -3 -7 -6 -3 -6 9 -1 25 15 40 22
21 3 -9 10 -7 21 7 21 27 20 23 -13 -80 -25 -78 -60 -227 -74 -317 -5 -34 9
-26 28 15 l14 32 -6 -30 c-3 -16 -12 -39 -19 -50 -19 -29 -43 -102 -37 -109 3
-3 25 34 49 83 23 49 57 111 75 137 19 27 63 111 99 187 61 128 80 157 80 122
0 -49 142 -351 193 -408 l28 -32 -25 41 c-48 81 -144 280 -164 344 -61 189
-50 454 25 574 25 40 120 147 137 155 4 2 -21 -39 -56 -91 -106 -155 -112
-171 -116 -329 -2 -74 1 -168 7 -209 13 -79 86 -262 127 -316 13 -17 20 -35
16 -38 -3 -4 1 -4 11 0 13 5 16 2 10 -12 -4 -11 -3 -15 4 -11 6 4 10 0 9 -10
-2 -22 21 -28 27 -6 3 10 5 -4 6 -30 0 -27 5 -46 10 -43 5 3 7 15 4 26 -3 11
-1 20 5 20 8 0 33 -105 32 -136 -1 -5 -17 9 -36 31 -34 38 -34 37 8 -25 23
-36 48 -76 55 -90 10 -23 11 -21 6 15 -2 22 -8 51 -12 65 -4 14 -5 35 -2 47 5
17 19 0 75 -93 38 -64 97 -146 133 -184 36 -38 79 -87 95 -110 36 -49 47 -52
19 -5 -11 19 -16 37 -12 40 8 4 -8 89 -39 215 -10 43 -71 226 -93 280 -6 14
-11 30 -12 35 0 6 -5 24 -10 40 l-9 30 -7 -25 -7 -25 -1 28 c-1 15 4 27 9 27
6 0 10 5 10 11 0 5 -5 7 -10 4 -7 -4 -9 3 -5 22 5 21 4 24 -4 13 -6 -8 -11
-10 -12 -5 -4 58 -7 137 -4 134 3 -4 64 -194 146 -463 27 -87 59 -211 71 -277
34 -184 36 -144 2 81 -4 30 1 25 35 -38 42 -75 99 -163 173 -267 l43 -60 0
-215 c0 -118 -3 -239 -7 -268 -5 -33 -4 -50 3 -47 5 4 7 10 4 15 -3 5 -1 11 5
15 5 3 10 -2 10 -12 -1 -22 -27 -58 -31 -44 -2 6 -9 -1 -16 -14 -22 -47 9 -26
98 65 l88 91 3 -75 3 -76 34 32 c23 21 32 26 28 14 -14 -35 -19 -66 -12 -66
10 0 96 63 169 122 32 27 60 47 63 45 2 -2 -13 -38 -34 -80 -32 -65 -42 -77
-68 -83 -30 -7 -96 -34 -105 -45 -3 -3 -27 -13 -55 -24 -27 -10 -59 -25 -70
-32 -19 -14 -19 -15 5 -8 14 4 59 23 100 42 41 20 120 50 175 68 95 32 99 34
72 44 -16 6 -32 11 -36 11 -10 0 32 119 45 128 5 4 10 14 12 22 9 37 42 54 42
21 0 -27 34 -104 52 -119 13 -11 17 -6 26 30 8 31 8 44 0 49 -13 8 -5 69 19
136 9 27 20 91 24 143 l7 95 -2 -102 c-2 -111 -1 -112 49 -9 27 55 32 73 23
84 -9 10 -9 15 1 22 8 4 11 13 7 18 -7 12 3 62 13 62 3 0 16 -17 28 -38 l22
-37 1 149 c0 82 -2 147 -4 145 -3 -2 -6 -57 -8 -122 -1 -64 -6 -117 -9 -117
-9 0 -46 107 -58 170 -35 180 -43 262 -42 465 1 115 3 233 6 260 4 48 4 49 -5
10 -5 -22 -12 -110 -16 -195 l-7 -155 -22 85 c-29 111 -52 161 -76 167 -12 4
-19 14 -20 32 0 22 -3 19 -12 -14 l-12 -39 -17 34 c-22 45 -24 19 -4 -76 22
-103 46 -327 46 -429 2 -239 -71 -515 -175 -671 -30 -44 -62 -87 -72 -95 -9
-8 -3 6 14 31 17 25 55 95 86 156 46 91 61 135 88 260 29 129 33 168 34 289 0
172 -3 198 -52 450 -32 166 -69 270 -150 425 -76 144 -103 187 -187 284 -117
137 -218 217 -304 242 -31 9 -66 20 -77 24 -18 8 -17 9 6 9 35 1 152 -35 213
-66 26 -13 55 -22 63 -19 10 4 13 1 9 -12 -4 -13 3 -25 23 -40 29 -21 61 -21
61 0 0 6 -7 7 -15 4 -9 -3 -26 0 -38 7 -12 6 -24 13 -26 14 -6 3 27 33 37 33
5 0 22 -6 37 -14 17 -9 22 -16 13 -19 -10 -4 -10 -8 2 -16 11 -8 16 -7 18 4 3
12 8 12 30 -3 39 -24 40 -25 119 -92 40 -33 76 -60 82 -60 5 0 13 -4 16 -10 4
-7 -2 -7 -19 0 -34 12 -42 -4 -16 -30 20 -20 47 -19 35 1 -4 5 1 9 11 9 9 0
35 -19 58 -42 22 -23 35 -38 29 -34 -9 5 -11 2 -7 -9 4 -9 13 -13 24 -10 12 4
26 -6 46 -31 16 -21 39 -49 50 -63 26 -32 57 -94 74 -146 19 -61 27 -62 38 -3
21 112 138 378 215 493 137 201 397 372 622 409 101 16 230 15 247 -2 15 -15
108 -16 108 -2 0 6 -12 10 -27 10 -45 0 -132 33 -181 70 -83 62 -108 145 -81
271 8 36 14 47 20 38 7 -12 9 -11 9 1 0 8 3 25 6 38 6 21 -5 30 -20 15z
m-1482 -303 c-20 -20 -158 -61 -249 -75 -218 -34 -461 -101 -568 -157 -37 -19
-55 -19 -43 0 8 14 145 79 191 91 51 14 330 75 509 112 76 15 141 31 144 34 3
3 10 5 16 5 7 0 7 -3 0 -10z m-1209 -60 c113 -18 253 -75 234 -94 -3 -3 -32 3
-65 13 -81 26 -277 71 -311 71 -2 0 -3 5 -3 10 0 13 67 13 145 0z m-1625 -60
c19 -12 -173 -12 -210 0 -16 5 15 8 85 9 61 0 117 -4 125 -9z m50 -20 c0 -5
-9 -14 -20 -20 -24 -13 -26 -7 -4 14 18 18 24 20 24 6z m-51 -42 c-2 -2 -17
-14 -34 -28 l-30 -25 29 32 c16 18 32 31 34 28 3 -3 3 -6 1 -7z m431 1 c45 -7
88 -24 140 -53 41 -24 91 -51 110 -60 20 -9 61 -38 93 -64 66 -54 170 -198
163 -225 -2 -9 26 10 62 43 89 82 161 129 273 178 125 54 227 80 346 86 l98 5
-113 -20 c-95 -16 -132 -29 -245 -83 -211 -100 -326 -184 -515 -373 -90 -90
-165 -163 -168 -163 -9 0 51 74 153 192 l93 107 -22 24 c-13 12 -53 62 -90
109 -97 125 -207 205 -342 247 -55 17 -123 34 -149 38 -32 4 -44 9 -35 14 18
12 70 11 148 -2z m-1121 -3 c-6 -6 -239 -106 -246 -106 -3 0 12 12 33 27 44
30 235 101 213 79z m3562 -26 c194 -50 345 -132 494 -268 75 -69 155 -168 155
-191 0 -10 -14 -45 -31 -78 l-30 -59 -72 70 c-40 39 -71 77 -69 83 2 7 -6 13
-18 13 -17 0 -19 4 -14 25 4 15 2 25 -5 25 -16 0 -51 32 -45 41 2 5 11 6 18 3
8 -3 16 4 19 16 3 12 10 19 15 16 6 -3 8 -14 5 -24 -3 -12 1 -19 11 -19 9 0
16 1 16 1 0 1 4 15 9 33 7 24 6 35 -5 44 -12 10 -13 9 -8 -5 3 -9 2 -16 -4
-16 -5 0 -13 12 -16 26 -5 17 -12 24 -21 20 -9 -3 -25 8 -41 29 -14 19 -31 35
-36 35 -6 0 -32 15 -58 34 -63 45 -153 86 -277 125 -57 18 -103 35 -103 37 0
8 34 3 111 -16z m-33 -99 c22 -14 10 -44 -19 -48 -30 -4 -54 19 -45 42 6 16
43 20 64 6z m85 -15 c7 -17 -1 -26 -24 -26 -21 0 -33 15 -24 30 9 15 42 12 48
-4z m224 -70 c-6 -7 -20 -11 -30 -8 -11 3 -23 -1 -27 -8 -5 -9 -9 -9 -14 -1
-4 6 -2 11 4 11 7 0 10 7 6 15 -5 13 -2 14 15 4 11 -6 24 -7 27 -3 4 4 1 9 -5
11 -7 3 -13 9 -13 14 0 5 11 2 25 -7 19 -12 22 -19 12 -28z m-4257 16 c-53
-36 -213 -187 -389 -368 -194 -199 -239 -259 -416 -555 -39 -65 -71 -116 -73
-114 -5 5 47 105 83 160 17 28 54 88 80 135 108 192 275 411 421 551 85 81
144 125 239 176 64 34 97 43 55 15z m1802 -9 c16 -14 25 -43 14 -43 -2 0 -11
-3 -19 -6 -18 -7 -47 21 -47 47 0 24 27 25 52 2z m-1465 -28 c-61 -59 -91
-113 -160 -285 -76 -189 -96 -270 -133 -541 -32 -237 -41 -539 -25 -814 16
-269 36 -416 82 -605 32 -131 49 -183 86 -250 90 -168 190 -306 332 -460 117
-127 182 -212 220 -287 48 -96 37 -97 -27 -1 -31 48 -71 104 -89 125 -17 21
-47 56 -65 79 -18 23 -68 81 -111 130 -119 133 -244 321 -304 456 -28 64 -52
125 -52 135 0 10 -7 45 -15 78 -51 198 -82 458 -92 776 -7 250 -1 349 47 684
37 256 37 258 94 425 67 195 138 322 204 365 49 32 50 31 8 -10z m2718 25 c4
-6 -14 -10 -47 -10 -38 0 -49 3 -38 10 20 13 77 13 85 0z m-161 -9 c3 -5 -15
-11 -41 -14 -76 -8 -202 -81 -314 -180 -55 -49 -103 -95 -106 -103 -3 -8 -12
-14 -20 -14 -8 0 -11 -4 -8 -10 3 -5 1 -10 -4 -10 -6 0 -11 -5 -11 -10 0 -6
-10 -24 -22 -40 -12 -16 -19 -33 -15 -36 3 -4 27 -3 51 0 38 6 47 12 52 32 4
14 8 23 11 20 3 -2 12 3 22 12 42 41 105 94 141 119 22 15 40 33 40 40 0 11
80 43 111 43 9 0 30 7 45 15 16 8 39 15 52 15 12 0 22 5 22 10 0 18 20 11 21
-7 1 -17 2 -17 6 0 5 18 33 24 33 6 0 -5 -5 -7 -12 -3 -7 4 -8 3 -4 -5 4 -6
-2 -23 -13 -37 -20 -26 -21 -26 -21 -5 0 12 -4 19 -10 16 -13 -8 -13 -42 1
-47 13 -4 -43 -129 -66 -148 -7 -6 -11 -18 -9 -25 3 -7 -1 -29 -9 -47 -15 -34
-28 -69 -68 -176 -13 -34 -26 -57 -28 -51 -2 8 -6 7 -12 -2 -7 -11 -9 -10 -9
3 0 9 5 20 10 23 19 12 11 33 -10 28 -16 -4 -19 -2 -14 11 3 9 12 16 20 16 16
0 19 17 3 22 -13 4 -1 58 13 58 6 0 8 -7 4 -15 -3 -8 -1 -15 3 -15 5 0 9 16 9
36 0 25 -3 33 -9 23 -5 -8 -9 -10 -9 -6 0 12 33 67 40 67 4 0 6 10 4 23 -3 31
-3 30 -13 46 -10 15 -37 -9 -101 -90 -14 -17 -34 -43 -46 -58 -33 -41 -124
-187 -124 -198 0 -5 -9 -18 -20 -28 -21 -19 -25 -15 -33 35 -4 24 -4 24 -6 -2
-1 -31 -12 -36 -30 -14 -9 11 -8 15 6 21 16 6 14 10 -15 35 -29 24 -32 29 -17
37 24 14 10 93 -16 88 -10 -2 -31 3 -46 11 -16 7 -23 14 -18 15 6 0 -1 4 -13
10 l-24 9 34 41 c38 47 44 57 52 83 4 10 12 16 20 13 16 -6 30 19 19 36 -4 6
0 8 10 4 10 -4 17 -2 17 4 0 6 7 8 16 5 9 -3 12 -2 9 5 -4 5 -15 7 -26 4 -13
-5 -19 -2 -19 10 0 9 -4 13 -10 10 -5 -3 -10 -4 -10 -1 0 3 20 17 45 32 37 21
48 24 60 14 12 -10 15 -10 15 0 0 7 7 10 15 6 17 -6 21 19 5 29 -17 10 36 46
56 38 11 -4 15 -3 11 4 -7 11 22 28 31 18 3 -3 0 -5 -6 -5 -7 0 -12 -5 -12
-11 0 -8 5 -8 15 1 8 7 12 17 9 22 -3 5 2 16 12 23 29 22 39 18 18 -6 -19 -22
-19 -22 4 -10 12 6 22 15 22 20 0 5 33 18 73 31 39 12 81 26 92 30 27 11 63
12 69 1z m1126 -3 c0 -10 2 -10 8 0 12 18 65 -11 69 -38 4 -27 -22 -26 -41 2
-9 12 -16 17 -16 10 0 -13 -39 -16 -55 -4 -5 4 -11 15 -13 25 -2 12 4 17 23
17 14 0 25 -6 25 -12z m124 -26 c-21 -5 -28 4 -20 24 6 16 8 15 21 -2 12 -16
12 -19 -1 -22z m156 23 c16 10 19 -12 5 -31 -14 -18 -14 -18 -15 4 0 12 -5 22
-11 22 -5 0 -7 5 -3 12 6 9 9 9 12 0 2 -7 8 -10 12 -7z m-430 -41 c0 -14 -3
-15 -17 -3 -10 7 -20 15 -22 16 -2 2 5 3 17 3 14 0 22 -6 22 -16z m-1450 -9
c0 -18 -37 -38 -56 -31 -17 7 -18 33 -1 39 26 11 57 7 57 -8z m-949 -175 c48
-197 70 -510 50 -695 -31 -279 -54 -356 -156 -532 -20 -35 -34 -63 -31 -63 8
0 91 128 109 170 38 86 49 120 67 224 10 61 24 169 31 241 11 120 13 127 25
100 74 -171 75 -177 34 -155 -11 6 -26 9 -33 7 -7 -2 4 -9 24 -16 50 -16 62
-33 97 -136 30 -87 30 -95 27 -240 l-3 -150 8 135 c12 202 46 375 108 552 36
100 88 208 101 208 5 0 -4 -26 -20 -57 -16 -32 -29 -67 -29 -78 0 -11 -9 -37
-20 -57 -10 -20 -21 -52 -23 -70 -2 -19 -6 -39 -10 -45 -10 -17 -43 -185 -56
-288 -27 -218 -31 -261 -31 -314 0 -56 -9 -83 -26 -82 -5 1 -9 -3 -8 -9 1 -5
2 -29 4 -52 l2 -43 10 33 c13 37 18 38 75 13 34 -16 44 -27 52 -58 6 -21 11
-42 11 -46 0 -5 13 -41 28 -80 28 -68 29 -76 20 -157 -12 -112 -31 -168 -81
-236 -39 -52 -44 -55 -74 -51 -18 3 -33 2 -33 -2 0 -5 -19 -14 -42 -20 -98
-25 -84 -45 17 -25 84 16 125 17 125 4 0 -5 -7 -10 -15 -10 -9 0 -12 -6 -8
-17 4 -10 2 -14 -4 -10 -6 4 -40 -6 -75 -22 -34 -16 -74 -32 -87 -36 -22 -7
-23 -9 -9 -19 14 -10 13 -13 -8 -23 -14 -7 -24 -7 -24 -1 0 5 -4 6 -10 3 -15
-10 -12 -25 8 -32 42 -16 80 -55 87 -90 6 -33 3 -40 -37 -80 -24 -25 -70 -58
-103 -75 -33 -17 -72 -39 -86 -49 -15 -10 -51 -22 -80 -26 -29 -5 -54 -14 -57
-22 -3 -10 3 -12 24 -7 55 12 214 16 214 6 0 -6 -5 -10 -12 -10 -6 0 -3 -7 8
-15 18 -14 18 -16 2 -29 -33 -25 -18 -24 33 1 27 14 52 23 55 20 3 -2 -59 -70
-138 -151 -79 -80 -153 -158 -166 -173 -13 -16 -41 -50 -64 -78 -22 -27 -45
-49 -49 -48 -5 2 -6 -4 -3 -12 7 -18 -12 -20 -20 -2 -3 6 -4 3 -1 -8 4 -18 0
-20 -33 -18 -20 1 -46 4 -57 7 -11 2 -52 5 -91 5 l-71 1 -81 80 c-83 82 -108
126 -132 234 -5 23 -12 50 -16 59 -3 10 -1 17 5 17 6 0 34 11 63 24 64 30 121
46 168 47 29 0 31 2 15 9 -18 8 -18 9 5 10 23 1 23 2 5 10 -15 7 -8 9 30 11
l50 2 -40 7 c-38 7 -38 7 18 9 43 1 57 5 57 16 0 9 -9 15 -24 15 -13 0 -26 5
-28 10 -2 6 -44 17 -93 25 -50 8 -119 20 -155 26 -36 6 -87 10 -113 8 l-47 -4
-31 85 c-17 47 -40 123 -51 170 -11 47 -28 119 -38 160 -10 41 -17 76 -16 77
1 1 42 6 91 11 l90 9 -97 2 c-53 0 -99 4 -101 9 -23 37 -87 474 -87 595 0 48
1 49 103 150 173 171 326 338 391 424 35 47 68 83 78 83 10 0 15 5 12 13 -4
12 15 41 73 107 37 43 87 107 111 142 l22 33 0 -70 c0 -39 -3 -100 -7 -137
l-6 -68 -91 -2 -91 -2 90 -5 c50 -4 90 -10 90 -16 -4 -124 -48 -478 -70 -567
-19 -74 -43 -155 -55 -183 -5 -11 -11 -31 -14 -45 -5 -24 -4 -24 9 -6 8 11 15
25 15 31 0 27 35 53 63 48 15 -3 27 -2 25 3 -2 5 5 20 15 34 10 14 17 18 17
10 0 -18 59 39 116 112 81 104 209 398 173 398 -5 0 -9 5 -9 10 0 6 7 10 15
10 8 0 15 3 15 8 0 4 7 77 15 162 12 123 13 186 5 305 -13 195 -35 361 -60
455 -11 41 -19 80 -19 85 1 22 22 -46 50 -165z m386 144 c10 -27 -14 -40 -37
-19 -11 10 -17 22 -14 26 9 15 44 10 51 -7z m593 2 c0 -8 -4 -17 -8 -20 -13
-8 -35 11 -28 23 10 16 36 14 36 -3z m1730 -1 c0 -9 -6 -12 -16 -8 -13 5 -13
7 -2 14 17 11 18 11 18 -6z m47 -21 c-3 -3 -12 -4 -19 -1 -8 3 -5 6 6 6 11 1
17 -2 13 -5z m23 -24 c0 -5 -2 -10 -4 -10 -3 0 -8 5 -11 10 -3 6 -1 10 4 10 6
0 11 -4 11 -10z m-3900 -20 c0 -11 -7 -20 -15 -20 -15 0 -21 21 -8 33 12 13
23 7 23 -13z m3285 0 c3 -5 2 -10 -4 -10 -5 0 -13 5 -16 10 -3 6 -2 10 4 10 5
0 13 -4 16 -10z m652 -6 c-3 -3 -12 -4 -19 -1 -8 3 -5 6 6 6 11 1 17 -2 13 -5z
m-3262 -184 c-73 -235 -137 -374 -276 -606 -43 -73 -79 -137 -79 -143 0 -7 -7
-22 -16 -36 -12 -19 -13 -28 -4 -45 6 -12 9 -24 6 -28 -3 -3 -6 0 -6 6 0 17
-29 3 -41 -20 -15 -28 3 -44 25 -23 9 9 16 13 16 9 0 -4 7 1 15 12 8 10 15 14
15 8 0 -6 -15 -25 -32 -42 -18 -17 -41 -42 -51 -56 -10 -15 -23 -24 -28 -20
-5 3 -8 2 -7 -3 1 -4 -23 -35 -55 -68 -31 -32 -57 -63 -57 -67 0 -4 -5 -8 -11
-8 -7 0 -5 10 5 25 9 14 14 25 12 25 -2 0 5 10 16 23 22 25 116 186 150 257
12 25 57 110 100 190 162 293 260 513 309 693 17 62 25 79 27 59 2 -15 -13
-79 -33 -142z m775 44 c55 -79 67 -104 52 -104 -5 0 -31 35 -58 78 -26 42 -59
93 -73 112 l-25 35 27 -24 c15 -13 49 -57 77 -97z m2575 86 c3 -5 2 -10 -4
-10 -5 0 -13 5 -16 10 -3 6 -2 10 4 10 5 0 13 -4 16 -10z m-665 -26 c0 -12 4
-14 13 -7 8 8 19 2 35 -18 16 -20 19 -27 8 -23 -11 4 -16 0 -16 -12 0 -12 -9
-5 -30 22 -31 42 -36 54 -20 54 6 0 10 -7 10 -16z m132 -118 c18 -22 36 -42
40 -44 5 -2 8 -9 8 -16 0 -7 9 -21 20 -31 11 -10 20 -24 20 -32 0 -7 4 -13 8
-13 12 0 81 -154 93 -209 6 -25 17 -68 24 -96 25 -90 29 -118 14 -113 -8 3
-17 26 -20 54 -4 33 -6 39 -8 19 l-2 -30 -24 28 c-13 15 -28 27 -33 27 -6 0
-12 7 -16 15 -7 18 -32 20 -39 2 -2 -6 -4 -21 -3 -32 2 -27 36 -128 47 -139 5
-6 9 -21 8 -35 0 -24 -1 -24 -9 -6 -8 18 -10 18 -14 -2 -3 -18 -18 -33 -27
-28 -5 4 -9 1 -9 -5 0 -6 -5 -8 -10 -5 -7 4 -7 12 0 25 7 13 7 21 -2 26 -6 4
-8 3 -5 -3 9 -15 -17 -23 -34 -11 -11 8 -10 9 4 4 9 -3 17 -1 17 4 0 6 -4 11
-10 11 -5 1 -14 3 -20 4 -5 1 -14 3 -20 4 -5 0 -10 10 -10 22 0 11 -4 17 -10
14 -13 -8 -13 8 1 22 8 8 7 13 -2 18 -7 5 -10 4 -6 -2 4 -6 0 -13 -8 -17 -19
-7 -31 14 -14 26 11 7 9 8 -6 6 -23 -4 -62 38 -57 62 2 8 0 12 -4 8 -8 -9 -49
47 -64 87 -6 15 -15 23 -20 20 -7 -4 -9 3 -5 22 5 21 4 24 -4 13 -8 -12 -12
-9 -22 15 -7 17 -13 36 -14 43 0 7 -6 17 -14 21 -16 10 -27 101 -16 128 6 16
11 13 40 -20 19 -22 32 -44 31 -50 -2 -7 -1 -9 1 -4 3 4 11 7 20 7 8 0 21 7
29 15 9 8 22 15 30 15 8 0 17 -7 20 -15 6 -16 44 -21 44 -6 0 5 8 11 18 13 15
4 18 12 14 38 -4 28 -2 32 12 27 9 -4 16 -2 16 2 0 5 -7 12 -16 15 -8 3 -13
10 -10 15 3 4 -8 26 -24 47 -36 48 -37 59 -5 60 18 1 34 -9 57 -40z m-405 -98
c-3 -8 -6 -5 -6 6 -1 11 2 17 5 13 3 -3 4 -12 1 -19z m103 -6 c0 -15 -2 -15
-10 -2 -13 20 -13 33 0 25 6 -3 10 -14 10 -23z m-3883 -54 c-14 -24 -30 -60
-37 -81 -7 -21 -14 -36 -17 -33 -6 6 17 68 50 134 12 24 23 39 25 33 2 -5 -8
-29 -21 -53z m3843 32 c9 13 10 13 10 0 0 -18 -17 -47 -23 -40 -3 3 -8 16 -11
30 -6 19 -5 22 3 10 10 -13 12 -13 21 0z m-30 -36 c0 -8 -4 -12 -10 -9 -5 3
-10 13 -10 21 0 8 5 12 10 9 6 -3 10 -13 10 -21z m114 -139 c60 -122 175 -273
277 -366 97 -87 176 -149 242 -188 43 -26 48 -35 12 -21 -50 19 -113 59 -199
125 -106 82 -141 117 -214 215 -31 41 -59 77 -63 80 -3 3 -19 28 -34 55 -16
28 -36 55 -44 61 -9 7 -11 16 -6 25 5 8 5 11 0 7 -15 -14 -33 26 -29 63 3 21
0 40 -6 44 -12 7 -14 48 -3 59 4 4 13 -14 20 -40 6 -27 28 -80 47 -119z
m-3775 -51 c-32 -218 -5 -623 61 -909 11 -49 22 -99 24 -110 18 -107 69 -302
91 -345 20 -40 77 -211 72 -216 -3 -3 -17 30 -33 73 -15 43 -33 87 -40 98 -7
11 -29 73 -49 139 -35 114 -53 151 -35 73 4 -22 4 -39 -1 -43 -10 -6 -115 40
-244 106 -90 46 -114 85 -126 209 -5 47 -14 99 -20 114 -14 33 -7 356 11 487
33 250 42 309 57 348 21 55 25 49 13 -19 -50 -279 -71 -478 -69 -659 1 -83 15
-187 18 -137 0 11 16 34 35 53 53 53 118 47 210 -20 15 -10 29 -17 32 -14 2 3
0 27 -5 54 -40 207 -48 552 -16 712 10 51 20 91 22 89 2 -2 -2 -39 -8 -83z
m2101 6 c0 -5 -5 -10 -11 -10 -5 0 -7 5 -4 10 3 6 8 10 11 10 2 0 4 -4 4 -10z
m450 -60 c0 -5 -5 -10 -11 -10 -5 0 -7 5 -4 10 3 6 8 10 11 10 2 0 4 -4 4 -10z
m-53 -42 c-3 -8 -6 -5 -6 6 -1 11 2 17 5 13 3 -3 4 -12 1 -19z m-842 -68 c8
-26 -13 -53 -37 -47 -11 3 -18 0 -18 -10 0 -20 -34 -12 -38 10 -2 11 3 17 16
17 10 0 24 11 30 25 14 30 38 33 47 5z m1608 -35 c-3 -9 -8 -14 -10 -11 -3 3
-2 9 2 15 9 16 15 13 8 -4z m196 -21 c17 -38 6 -42 -14 -5 -8 17 -12 31 -7 31
5 0 14 -12 21 -26z m-932 -26 c-3 -8 -6 -5 -6 6 -1 11 2 17 5 13 3 -3 4 -12 1
-19z m990 -35 c-3 -10 -5 -4 -5 12 0 17 2 24 5 18 2 -7 2 -21 0 -30z m-17 8
c0 -17 -18 -21 -24 -6 -3 9 0 15 9 15 8 0 15 -4 15 -9z m-3007 -45 c7 -19 -18
-40 -38 -32 -15 6 -20 28 -8 39 12 12 41 7 46 -7z m3262 -16 c3 -5 1 -10 -4
-10 -6 0 -11 5 -11 10 0 6 2 10 4 10 3 0 8 -4 11 -10z m-216 -50 c1 -13 0 -13
-9 0 -5 8 -9 24 -9 35 l0 20 9 -20 c5 -11 9 -27 9 -35z m-3109 -5 c0 -8 -4
-15 -9 -15 -13 0 -22 16 -14 24 11 11 23 6 23 -9z m3774 9 c9 -3 16 -11 16
-16 0 -7 -5 -6 -14 1 -7 6 -22 9 -32 5 -16 -5 -16 -4 -4 5 18 13 15 12 34 5z
m-4868 -106 c-20 -124 -48 -321 -47 -333 6 -60 26 -191 41 -280 11 -60 22
-135 26 -165 3 -30 16 -93 29 -140 26 -95 45 -226 45 -307 l0 -55 -32 7 c-103
21 -186 148 -247 377 -26 94 -51 289 -51 394 0 148 63 400 107 427 7 4 13 13
13 20 0 7 21 35 46 62 25 28 53 60 61 73 9 12 18 21 20 18 3 -2 -2 -46 -11
-98z m139 81 c13 -19 -4 -59 -25 -59 -16 0 -20 7 -20 35 0 28 4 35 19 35 11 0
23 -5 26 -11z m1461 -37 c-18 -16 -18 -16 -6 6 6 13 14 21 18 18 3 -4 -2 -14
-12 -24z m-1562 -179 c-6 -194 5 -433 27 -553 11 -62 59 -477 59 -506 -1 -47
-18 16 -24 89 -6 85 -21 168 -73 422 -48 234 -55 408 -24 591 38 217 43 210
35 -43z m146 137 c0 -11 -6 -20 -14 -20 -18 0 -29 16 -21 30 11 18 35 11 35
-10z m4320 -18 c0 -15 -2 -15 -10 -2 -13 20 -13 33 0 25 6 -3 10 -14 10 -23z
m70 -102 c0 -5 -5 -10 -11 -10 -5 0 -7 5 -4 10 3 6 8 10 11 10 2 0 4 -4 4 -10z
m-1810 -26 c0 -24 -19 -54 -35 -54 -15 0 -22 50 -8 63 13 13 43 7 43 -9z
m1821 -40 c5 -15 8 -29 5 -31 -2 -2 -8 10 -14 26 -13 38 -5 41 9 5z m-1791 -9
c0 -8 -7 -15 -15 -15 -16 0 -20 12 -8 23 11 12 23 8 23 -8z m-113 -107 c-3 -7
-5 -2 -5 12 0 14 2 19 5 13 2 -7 2 -19 0 -25z m-23 -13 c4 -14 4 -30 1 -35 -3
-5 -1 -11 5 -15 5 -3 10 -13 10 -22 0 -12 -6 -14 -27 -8 -42 10 -45 17 -26 63
21 48 28 52 37 17z m166 -410 c35 -96 53 -235 31 -235 -6 0 -11 15 -11 33 0
50 -33 170 -74 268 -38 94 -86 265 -86 308 1 14 25 -44 54 -129 30 -85 68
-195 86 -245z m-3120 165 c-8 -63 -11 -186 -8 -324 l5 -221 51 -132 c28 -73
58 -146 67 -162 31 -61 -5 -29 -59 52 -65 98 -70 109 -89 218 -35 191 -33 278
19 578 8 46 14 88 14 94 0 6 3 8 6 5 3 -3 0 -52 -6 -108z m1515 100 c3 -5 1
-10 -4 -10 -6 0 -11 5 -11 10 0 6 2 10 4 10 3 0 8 -4 11 -10z m14 -82 c1 -10
-3 -18 -9 -18 -5 0 -10 17 -9 38 0 30 2 33 9 17 5 -11 9 -28 9 -37z m3987 -82
c-6 -56 -34 -162 -41 -154 -2 2 5 35 15 73 11 39 19 87 19 108 1 20 4 37 7 37
4 0 4 -29 0 -64z m-458 -23 c-4 -36 -38 -45 -38 -10 0 27 7 37 27 37 10 0 13
-9 11 -27z m45 21 c9 -9 -4 -35 -14 -28 -5 3 -9 12 -9 20 0 14 12 19 23 8z
m2974 -106 c-3 -8 -6 -5 -6 6 -1 11 2 17 5 13 3 -3 4 -12 1 -19z m-2647 -135
c0 -5 -10 -19 -21 -33 l-21 -25 18 33 c18 32 24 38 24 25z m2470 -3 c0 -5 -2
-10 -4 -10 -3 0 -8 5 -11 10 -3 6 -1 10 4 10 6 0 11 -4 11 -10z m-7269 -535
c33 -187 33 -199 15 -214 -9 -8 -19 -11 -23 -8 -11 11 -21 177 -26 417 -5 216
-5 222 4 80 5 -85 18 -209 30 -275z m456 237 c31 -38 93 -153 93 -172 0 -5 -7
-10 -16 -10 -11 0 -14 -5 -10 -16 3 -9 6 -19 6 -24 0 -5 10 -12 23 -16 l22 -8
-23 -5 c-13 -3 -23 -10 -22 -16 0 -11 6 -12 56 -14 25 -1 34 -8 52 -43 65
-128 111 -210 126 -227 10 -11 15 -25 11 -30 -6 -10 58 -78 152 -160 55 -48 2
-19 -66 37 -79 64 -326 224 -386 249 -27 12 -66 25 -85 31 -19 5 -43 13 -52
17 -34 14 -19 -20 18 -40 24 -13 31 -21 21 -25 -21 -8 -103 -69 -159 -120 -28
-24 -77 -83 -111 -130 -34 -47 -66 -90 -72 -96 -5 -6 -21 -30 -35 -52 -28 -46
-36 -50 -44 -24 -16 50 -46 233 -46 281 0 48 3 57 34 86 48 45 150 113 180
121 14 3 26 10 26 14 0 9 109 59 164 75 22 7 42 18 44 24 3 10 -11 11 -61 6
-101 -11 -161 1 -202 40 -50 46 -47 76 13 132 26 24 65 56 87 71 40 26 186 82
216 82 9 0 29 -17 46 -38z m4733 -51 c0 -4 -8 -7 -18 -7 -10 0 -19 5 -19 12 0
6 9 9 19 6 10 -2 18 -7 18 -11z m273 -175 c85 -85 174 -166 198 -182 113 -71
315 -158 487 -210 144 -44 160 -51 164 -78 2 -11 15 -27 31 -34 15 -7 27 -17
27 -21 0 -5 17 -11 38 -14 20 -4 57 -12 82 -18 70 -18 112 -14 134 13 16 21
27 23 105 24 101 1 122 9 254 93 53 34 99 61 102 61 4 0 32 19 63 43 84 63
111 79 125 71 7 -4 9 -4 6 0 -3 3 14 28 39 54 42 44 47 47 62 33 9 -9 15 -18
14 -20 -2 -2 3 -10 11 -17 10 -10 20 -11 38 -5 14 6 28 7 31 4 3 -4 6 1 6 10
0 13 9 17 38 17 20 0 46 7 56 15 50 38 60 4 21 -69 -14 -26 -25 -50 -25 -53 0
-9 100 128 115 157 19 38 38 128 32 153 -6 21 -6 21 8 3 15 -19 20 -50 15 -91
-4 -36 -59 -132 -127 -224 -103 -136 -252 -284 -423 -421 -66 -53 -190 -162
-190 -167 0 -3 29 16 65 42 45 32 67 42 70 33 3 -7 14 -38 25 -68 15 -42 19
-47 15 -20 -19 119 -20 114 18 143 105 80 423 422 515 554 14 20 28 30 37 26
9 -3 15 1 15 8 0 9 3 10 8 4 4 -5 29 -21 56 -35 29 -14 93 -68 152 -125 l101
-100 30 -100 c34 -112 107 -371 129 -455 78 -300 69 -663 -25 -1050 -11 -47
-32 -143 -47 -215 -15 -71 -30 -134 -35 -139 -5 -6 -9 -22 -9 -36 0 -15 -8
-51 -17 -81 -9 -30 -15 -79 -14 -109 1 -34 -6 -80 -18 -120 -12 -36 -26 -119
-32 -185 -11 -133 -31 -245 -83 -475 -48 -210 -47 -208 -108 -216 -31 -4 -46
-10 -40 -16 6 -6 -2 -46 -24 -110 -19 -55 -34 -103 -33 -106 0 -4 15 26 34 66
35 75 53 90 53 46 0 -49 16 -49 100 0 89 52 98 54 410 96 296 40 282 36 288
70 9 41 39 51 111 36 75 -16 79 -19 104 -67 20 -39 20 -40 0 -67 -13 -19 -43
-35 -102 -56 -46 -16 -93 -34 -104 -39 -11 -6 -27 -12 -35 -13 -8 -1 -28 -7
-45 -12 -16 -6 -75 -24 -130 -41 -93 -29 -167 -62 -105 -47 14 4 45 11 70 16
48 10 79 19 268 74 131 38 167 42 220 22 l34 -12 -137 -89 c-75 -48 -139 -93
-143 -99 -3 -6 5 -4 18 5 74 47 168 99 192 104 16 4 25 12 21 18 -3 6 -1 7 5
3 7 -4 32 2 56 12 24 11 62 23 84 27 37 6 42 4 63 -24 32 -43 55 -41 50 5 -4
36 97 36 184 0 87 -37 205 -135 205 -172 0 -6 7 -17 15 -24 12 -10 15 -9 15 6
0 9 -5 32 -12 50 -9 26 -9 36 1 48 12 14 15 13 30 -7 30 -38 71 -120 92 -182
20 -60 20 -48 3 51 l-7 36 121 -61 c69 -35 149 -84 190 -118 68 -56 71 -61 98
-143 22 -66 27 -100 25 -150 -2 -36 -4 -78 -5 -95 -1 -25 -6 -30 -36 -37 -19
-4 -73 -3 -120 2 -47 5 -132 15 -190 21 -58 6 -108 13 -112 16 -5 2 0 21 11
41 16 33 37 110 57 212 12 65 -7 23 -27 -57 -22 -89 -54 -168 -83 -201 -29
-33 -106 -26 -106 10 0 4 25 24 55 44 55 37 67 63 17 39 -15 -7 -67 -32 -117
-55 -49 -23 -101 -52 -115 -64 -29 -26 -103 -60 -120 -54 -10 3 34 39 118 96
22 16 31 27 24 34 -6 6 -49 -10 -123 -47 -119 -60 -246 -115 -265 -115 -6 0
-74 -31 -151 -70 -77 -38 -207 -94 -289 -124 -128 -46 -169 -56 -293 -71 -99
-12 -173 -16 -235 -11 -92 6 -116 15 -256 90 -25 13 -69 34 -99 47 -63 28
-137 111 -193 216 -52 98 -60 135 -50 242 5 54 4 98 -2 108 -5 10 -5 15 -1 11
4 -4 23 6 42 22 18 17 40 30 48 30 22 0 26 16 4 17 -11 1 -36 -9 -56 -23 -20
-13 -45 -24 -55 -24 -17 0 -20 6 -16 34 4 35 -7 41 -35 18 -11 -10 -14 -28
-11 -73 3 -40 1 -58 -6 -54 -6 3 -8 24 -5 46 7 54 -17 48 -26 -6 -4 -22 -12
-41 -18 -43 -6 -2 -11 -8 -11 -14 0 -6 6 -8 14 -5 21 8 30 -8 56 -93 21 -71
22 -149 4 -244 -17 -88 -113 -190 -236 -250 -65 -32 -91 -37 -243 -56 -293
-35 -587 -24 -810 30 -100 25 -130 37 -185 75 -75 52 -106 87 -165 191 -26 46
-84 119 -151 190 -111 119 -147 139 -74 41 46 -61 100 -168 100 -198 0 -11
-10 -35 -22 -55 -23 -35 -24 -35 -77 -29 -30 3 -66 12 -80 19 -14 8 -48 24
-76 36 -46 21 -53 29 -88 99 -21 42 -46 101 -56 131 -19 53 -38 67 -35 25 9
-124 13 -155 18 -164 14 -22 -12 -10 -46 21 -48 46 -89 153 -96 251 -3 47 -1
87 6 100 6 12 15 51 21 87 11 64 28 90 59 90 11 0 12 -3 3 -14 -7 -9 -8 -17
-3 -20 10 -6 51 10 197 79 101 47 173 67 244 67 65 0 150 -12 156 -23 3 -4 12
-6 20 -3 14 6 94 -27 203 -83 34 -18 64 -33 66 -33 9 0 -7 40 -20 51 -24 20
-16 28 34 34 26 3 76 10 112 16 36 5 89 11 117 13 29 3 56 7 60 9 5 3 82 14
173 26 91 12 179 23 195 26 28 5 34 1 59 -40 16 -25 31 -43 34 -40 3 3 0 11
-6 17 -7 7 -12 18 -12 26 0 7 -21 46 -47 85 -60 91 -59 87 -31 88 13 1 -10 5
-51 10 -51 6 -77 14 -87 26 -12 17 -68 180 -126 363 -14 45 -34 86 -52 105
-18 19 -26 23 -22 12 10 -30 55 -359 56 -409 0 -3 -33 -11 -72 -18 -40 -6 -89
-16 -108 -21 -109 -27 -262 -51 -271 -42 -6 6 -17 52 -25 104 -8 52 -17 101
-20 109 -3 8 -5 15 -5 15 0 0 -6 27 -14 60 -8 33 -14 72 -15 88 0 15 -4 27 -9
27 -5 0 -7 19 -4 43 3 31 2 38 -6 27 -8 -11 -9 -2 -4 34 4 34 3 47 -5 42 -6
-3 -14 -1 -18 5 -4 8 -3 9 4 5 18 -11 15 49 -3 64 -8 7 -15 22 -14 34 1 19 2
18 9 -4 12 -37 11 -14 -1 81 -6 46 -18 91 -26 100 -10 12 -11 18 -3 21 8 2 8
16 1 48 -10 39 -65 412 -78 525 l-5 40 27 -45 c15 -25 40 -71 56 -102 16 -31
34 -60 41 -64 6 -4 -7 26 -31 67 -23 41 -87 166 -142 279 -56 113 -114 230
-129 260 -35 69 -104 293 -130 419 -37 187 -51 325 -47 463 6 181 11 202 58
242 22 18 39 36 39 41 0 4 -7 2 -15 -5 -16 -13 -19 -8 -15 24 1 10 -3 15 -8
12 -6 -3 -12 0 -15 8 -3 8 2 16 14 19 10 3 17 1 13 -4 -3 -5 2 -9 11 -9 9 0
14 4 10 9 -9 15 51 -17 66 -35 21 -26 103 -62 179 -80 39 -9 73 -14 75 -12 2
2 -37 17 -88 32 -87 26 -95 31 -137 82 -25 30 -55 66 -67 80 -29 31 -29 38 0
57 19 12 23 22 19 46 -2 17 -10 36 -18 42 -8 6 -14 15 -14 20 0 5 -11 22 -24
37 -102 114 -106 126 -107 270 -1 64 4 130 10 145 6 16 11 42 11 58 0 16 2 29
4 29 2 0 73 -69 159 -154z m-4608 108 c0 -19 -5 -29 -15 -29 -16 0 -25 28 -16
51 10 25 31 10 31 -22z m65 -9 c0 -8 -9 -15 -20 -15 -20 0 -26 11 -13 23 12
13 33 7 33 -8z m75 -45 c-3 -5 -10 -10 -16 -10 -5 0 -9 5 -9 10 0 6 7 10 16
10 8 0 12 -4 9 -10z m-1428 -132 c31 -17 51 -34 44 -36 -16 -5 -103 40 -109
56 -6 18 2 15 65 -20z m167 -169 c-14 -103 -29 -195 -69 -419 -7 -41 -20 -158
-29 -260 -9 -102 -24 -262 -32 -356 -15 -165 -15 -175 6 -309 11 -76 19 -140
16 -142 -9 -9 -34 96 -46 188 -12 101 -9 298 9 474 22 225 144 955 157 942 2
-2 -3 -55 -12 -118z m2769 95 c3 -4 -3 -19 -15 -35 -17 -23 -20 -37 -15 -79 4
-28 17 -76 31 -106 14 -30 22 -54 18 -54 -10 0 -67 95 -82 135 -24 63 27 175
63 139z m4200 -71 c-7 -2 -19 -2 -25 0 -7 3 -2 5 12 5 14 0 19 -2 13 -5z
m-108 -13 c3 -5 -1 -10 -10 -10 -9 0 -13 5 -10 10 3 6 8 10 10 10 2 0 7 -4 10
-10z m122 -6 c-3 -3 -12 -4 -19 -1 -8 3 -5 6 6 6 11 1 17 -2 13 -5z m-4477
-57 c0 -14 -56 -67 -71 -67 -21 0 -8 38 16 44 14 4 24 10 24 14 -3 16 2 22 16
22 8 0 15 -6 15 -13z m-1783 -23 c-3 -3 -12 -4 -19 -1 -8 3 -5 6 6 6 11 1 17
-2 13 -5z m143 -14 c12 -8 11 -10 -7 -10 -12 0 -25 5 -28 10 -8 13 15 13 35 0z
m-830 -130 c0 -11 -4 -20 -10 -20 -5 0 -10 9 -10 20 0 11 5 20 10 20 6 0 10
-9 10 -20z m5097 -15 c5 -14 7 -14 23 0 15 14 18 13 35 -6 16 -17 17 -22 5
-29 -8 -5 -21 -5 -31 1 -12 6 -19 4 -23 -7 -8 -21 -50 -14 -54 9 -4 19 14 47
30 47 5 0 11 -7 15 -15z m1620 -11 c-3 -3 -12 -4 -19 -1 -8 3 -5 6 6 6 11 1
17 -2 13 -5z m-6690 -38 c-4 -9 -11 -16 -17 -16 -11 0 -14 33 -3 43 11 11 26
-10 20 -27z m6730 9 c0 -8 -7 -15 -14 -15 -8 0 -12 4 -9 9 4 5 0 12 -6 14 -7
3 -4 6 8 6 12 1 21 -5 21 -14z m-50 -1 c-3 -3 -12 -4 -19 -1 -8 3 -5 6 6 6 11
1 17 -2 13 -5z m-4867 -277 c0 -4 -7 -2 -15 7 -8 8 -15 21 -15 28 1 14 30 -20
30 -35z m88 34 c10 -6 10 -10 -2 -20 -17 -14 -52 -11 -45 4 2 6 7 9 12 8 4 -2
7 2 7 7 0 12 10 13 28 1z m-38 -190 c-5 -11 -10 -26 -9 -33 0 -7 4 -3 9 10 5
12 14 22 20 22 7 0 8 -6 0 -19 -5 -11 -7 -28 -4 -38 5 -14 4 -15 -4 -4 -8 11
-11 10 -15 -5 -4 -16 -5 -16 -6 4 0 12 -6 22 -11 22 -6 0 -4 13 5 30 9 17 18
30 21 30 2 0 0 -9 -6 -19z m750 -47 c0 -16 -23 -44 -36 -44 -8 0 -13 -4 -9 -9
3 -5 -7 -40 -22 -78 -25 -62 -27 -79 -27 -203 0 -94 5 -153 16 -193 19 -68 30
-66 -97 -19 -44 17 -105 37 -135 46 -30 8 -72 30 -93 47 -32 26 -38 37 -35 60
3 21 -1 30 -19 38 -30 14 -39 53 -19 83 9 14 13 27 10 31 -23 22 57 97 104 97
14 0 33 11 44 25 28 36 65 53 139 61 45 5 68 13 77 25 16 23 102 51 102 33z
m-200 -36 c0 -9 -109 -40 -119 -33 -5 2 -8 -3 -7 -12 1 -20 -59 -63 -90 -63
-26 0 -88 -76 -79 -99 3 -7 -1 -24 -9 -35 -12 -19 -12 -27 0 -55 8 -18 23 -35
34 -38 13 -4 19 -11 16 -22 -11 -35 54 -103 111 -115 33 -8 50 -33 33 -50 -7
-7 -10 -7 -10 0 0 6 -19 11 -43 11 -23 1 -61 11 -83 22 -78 41 -148 34 -136
-13 3 -13 1 -17 -9 -14 -8 2 -15 14 -17 26 -2 12 -7 22 -12 22 -8 0 -52 72
-55 90 -9 51 -19 79 -34 98 -24 28 -35 28 -28 1 5 -17 3 -18 -9 -8 -10 8 -13
22 -9 39 3 14 1 37 -4 51 -9 20 -10 17 -4 -15 4 -28 3 -37 -6 -32 -6 4 -9 11
-6 16 3 5 1 19 -6 31 -9 17 -8 23 2 30 10 6 11 13 1 31 -17 34 -19 62 -4 64 6
1 16 2 20 3 5 0 7 16 5 34 -4 27 -2 29 7 14 7 -11 12 -34 13 -53 1 -26 4 -31
14 -22 7 6 13 17 13 24 0 8 6 15 13 15 24 2 52 -3 57 -11 9 -14 106 -16 123
-2 13 11 20 11 40 -3 19 -12 27 -13 33 -4 4 7 3 9 -2 6 -6 -3 -16 -2 -24 4
-12 7 -11 9 5 9 17 0 17 2 5 10 -13 9 -13 11 0 19 10 7 17 6 22 -2 5 -9 10 -9
20 1 16 16 33 15 52 -4 14 -14 16 -14 16 0 0 24 48 43 102 42 26 -1 48 -4 48
-8z m-513 -10 c16 -26 12 -38 -8 -28 -10 6 -19 17 -19 25 0 18 16 20 27 3z
m560 6 c-3 -3 -12 -4 -19 -1 -8 3 -5 6 6 6 11 1 17 -2 13 -5z m-2443 -184 c25
-45 36 -78 36 -107 0 -24 -4 -43 -9 -43 -17 0 -92 230 -90 276 0 11 6 1 14
-21 7 -22 29 -69 49 -105z m2693 69 c2 -8 -13 -22 -32 -31 -30 -15 -36 -16
-41 -3 -8 20 4 35 27 35 10 0 19 5 19 11 0 15 25 5 27 -12z m-111 -30 c-1 -32
2 -39 19 -40 16 -1 16 -2 3 -6 -19 -5 -49 -83 -41 -111 2 -11 0 -23 -6 -26 -6
-4 -11 -18 -11 -31 0 -12 -7 -25 -14 -28 -11 -5 -17 6 -22 40 -15 103 15 237
55 240 14 1 17 -6 17 -38z m-915 -80 c12 -8 12 -11 -1 -19 -19 -12 -29 10 -28
65 l0 40 8 -39 c4 -21 13 -42 21 -47z m2792 14 c-7 -2 -13 -13 -13 -23 0 -13
10 -20 40 -25 44 -7 60 -2 60 23 0 11 3 13 8 6 4 -7 25 -14 47 -17 22 -4 61
-11 87 -16 27 -6 59 -7 76 -2 39 12 58 0 43 -27 -6 -11 -11 -37 -11 -56 0 -29
-4 -36 -20 -36 -19 0 -23 -12 -24 -72 0 -15 -20 -17 -65 -6 -8 2 -14 -9 -17
-31 -2 -19 -11 -47 -18 -63 -14 -27 -14 -28 12 -29 23 -1 22 -3 -8 -8 l-35 -7
33 -8 c18 -4 32 -9 30 -11 -2 -2 -64 -9 -138 -15 -74 -6 -145 -13 -158 -16
-39 -8 -15 -21 51 -26 35 -3 75 -12 89 -19 l27 -14 -56 -64 c-92 -107 -183
-167 -303 -199 -84 -23 -189 -38 -178 -27 4 5 3 15 -4 22 -9 11 -9 16 1 22 10
6 9 10 -2 14 -10 4 -13 13 -10 26 4 15 1 21 -11 21 -9 0 -19 7 -23 15 -7 21
-80 55 -114 55 -56 0 -128 21 -123 35 7 17 -40 24 -79 12 -19 -7 -32 -6 -40 2
-8 8 -5 11 11 11 26 0 29 24 6 47 -16 17 -8 33 20 37 25 4 79 58 142 144 13
18 18 11 33 -43 16 -58 25 -69 52 -61 28 7 82 89 84 126 1 14 2 44 3 68 2 34
6 44 25 51 13 5 25 5 28 -1 4 -7 9 -6 13 1 4 6 20 11 37 11 17 0 29 5 29 13 0
8 11 24 25 37 14 13 23 30 20 38 -4 12 -3 13 10 2 8 -7 15 -9 15 -5 0 4 7 2
15 -5 11 -9 15 -9 15 -1 0 7 4 10 9 6 12 -7 33 29 23 40 -4 5 -2 5 5 1 6 -3
21 3 32 15 22 24 45 17 36 -10 -3 -10 1 -24 10 -31 21 -18 45 4 45 42 0 16 4
27 10 23 5 -3 6 -13 3 -22 -4 -9 1 -21 12 -29 24 -18 55 -1 55 30 0 25 8 36
24 35 6 0 5 -3 -1 -6z m-2393 -381 c-7 -3 -16 2 -21 9 -16 25 -9 32 12 13 13
-12 16 -20 9 -22z m3480 -462 c1 -8 6 -25 12 -37 7 -14 7 -30 0 -50 -9 -26
-10 -24 -16 32 -4 33 -12 86 -17 118 -6 32 -6 68 -2 80 7 20 12 -12 23 -143z
m39 -207 c7 -49 16 -95 20 -104 5 -8 7 -27 4 -42 -4 -17 -1 -27 7 -27 9 0 10
-10 6 -34 -4 -22 -2 -36 5 -38 8 -3 10 -16 4 -43 -7 -38 -8 -39 -16 -16 -6 14
-7 31 -4 39 3 8 0 21 -6 28 -6 8 -9 23 -6 34 3 11 1 23 -5 26 -5 3 -8 18 -7
32 1 15 -2 35 -6 45 -4 9 -5 28 -3 42 3 13 2 26 -3 27 -12 5 -23 118 -11 118
5 0 15 -39 21 -87z m-204 57 c3 -5 1 -10 -4 -10 -6 0 -11 5 -11 10 0 6 2 10 4
10 3 0 8 -4 11 -10z m3323 -293 c78 -138 98 -177 91 -177 -16 1 -84 30 -99 43
-10 8 -20 13 -23 11 -8 -8 -26 50 -46 155 -12 57 -21 108 -21 113 0 22 22 -11
98 -145z m-3067 -137 l-10 -25 0 25 c-1 14 3 36 7 50 l7 25 3 -25 c2 -14 -2
-37 -7 -50z m3055 -26 c1 -50 74 -135 164 -189 25 -15 59 -41 77 -57 27 -26
30 -34 22 -57 -18 -48 -35 -64 -57 -52 -30 16 -34 1 -7 -31 14 -16 32 -55 41
-86 56 -203 60 -214 91 -261 36 -53 31 -63 -19 -41 -24 10 -67 21 -95 25 -34
4 -53 12 -53 20 0 8 -10 15 -22 17 -27 4 -57 86 -36 99 9 6 9 12 -3 26 -23 27
-36 75 -64 228 -14 77 -34 181 -45 230 -23 106 -26 159 -7 152 6 -2 12 -12 13
-23z m-3036 -117 c-10 -10 -11 -4 -6 31 4 27 3 41 -3 38 -14 -9 -19 26 -7 47
9 15 13 7 20 -43 7 -46 6 -64 -4 -73z m3084 97 c5 -14 4 -15 -9 -4 -17 14 -19
20 -6 20 5 0 12 -7 15 -16z m37 -37 c-8 -8 -14 -7 -23 2 -11 11 -10 13 0 7 7
-4 15 0 19 10 5 12 8 14 11 5 2 -7 -1 -18 -7 -24z m-3074 -247 c2 -19 6 -48 6
-65 1 -16 4 -32 8 -35 3 -3 18 -95 33 -205 15 -110 32 -213 37 -229 5 -17 6
-33 1 -38 -6 -6 -15 32 -22 86 -7 53 -17 96 -23 96 -6 0 -7 16 -3 40 4 27 3
40 -5 40 -8 0 -10 12 -6 35 3 19 2 35 -2 35 -5 0 -12 29 -16 65 -3 36 -11 68
-17 71 -5 4 -7 21 -3 40 4 23 2 34 -6 34 -7 0 -9 11 -5 35 5 24 3 35 -5 35 -8
0 -9 12 -4 36 4 24 3 34 -4 29 -13 -7 -15 34 -4 62 7 17 20 -38 40 -167z m116
-727 c18 -127 21 -170 10 -159 -8 7 -8 8 -23 121 -6 44 -15 83 -19 88 -9 9 -2
67 9 67 4 0 14 -53 23 -117z m-33 -52 c0 -5 -7 -14 -15 -21 -12 -10 -15 -10
-15 2 0 8 3 18 7 21 9 10 23 9 23 -2z m-17 -39 c4 10 8 10 16 -2 22 -31 13
-40 -44 -40 -30 0 -55 2 -55 5 0 2 12 11 28 19 15 8 22 15 15 16 -7 0 -10 7
-7 15 5 13 9 12 24 -5 13 -15 19 -17 23 -8z m-592 -273 c-6 -41 -6 -272 0
-309 6 -37 38 -106 72 -154 16 -23 17 -30 6 -37 -8 -5 -18 -9 -24 -9 -5 0 -50
-5 -100 -10 -106 -11 -158 -2 -193 34 -29 28 -30 49 -17 240 l8 108 53 51 c49
47 166 116 189 112 6 -1 8 -13 6 -26z m2388 -169 c0 -10 -2 -11 -6 -2 -2 6
-11 12 -19 12 -8 0 -14 9 -14 20 0 19 1 19 20 3 11 -10 20 -24 19 -33z"/>
<path d="M11111 9497 c2 -1 13 -9 24 -17 19 -14 19 -14 6 3 -7 9 -18 17 -24
17 -6 0 -8 -1 -6 -3z"/>
<path d="M11160 9451 c0 -6 4 -13 10 -16 6 -3 7 1 4 9 -7 18 -14 21 -14 7z"/>
<path d="M9180 9469 c0 -5 5 -7 10 -4 6 3 10 8 10 11 0 2 -4 4 -10 4 -5 0 -10
-5 -10 -11z"/>
<path d="M9520 9414 c-8 -19 -7 -31 2 -41 10 -13 13 -11 20 8 6 15 5 25 -1 27
-5 2 -7 10 -4 18 3 8 2 14 -1 14 -4 0 -11 -12 -16 -26z"/>
<path d="M9100 9411 c0 -7 -4 -10 -9 -7 -4 3 -6 -6 -3 -19 5 -26 16 -32 27
-15 3 6 1 10 -4 10 -6 0 -11 5 -11 11 0 6 9 8 23 3 12 -3 20 -5 17 -2 -32 26
-40 30 -40 19z"/>
<path d="M9060 9380 c0 -5 5 -10 10 -10 6 0 10 5 10 10 0 6 -4 10 -10 10 -5 0
-10 -4 -10 -10z"/>
<path d="M9410 9190 c0 -5 5 -10 10 -10 6 0 10 5 10 10 0 6 -4 10 -10 10 -5 0
-10 -4 -10 -10z"/>
<path d="M7235 8120 c-11 -5 -32 -9 -47 -9 -15 -1 -40 -13 -55 -27 -22 -20
-24 -24 -8 -19 38 12 311 27 423 22 68 -3 115 -1 118 5 10 16 -18 28 -53 23
-18 -2 -35 0 -37 3 -6 11 -318 13 -341 2z"/>
<path d="M7910 8010 c-6 -11 -9 -20 -8 -20 2 0 11 9 21 20 9 11 13 20 7 20 -5
0 -14 -9 -20 -20z"/>
<path d="M7808 7433 c7 -3 16 -2 19 1 4 3 -2 6 -13 5 -11 0 -14 -3 -6 -6z"/>
<path d="M7878 7433 c7 -3 16 -2 19 1 4 3 -2 6 -13 5 -11 0 -14 -3 -6 -6z"/>
<path d="M7358 7423 c12 -2 32 -2 45 0 12 2 2 4 -23 4 -25 0 -35 -2 -22 -4z"/>
<path d="M8208 7393 c7 -3 16 -2 19 1 4 3 -2 6 -13 5 -11 0 -14 -3 -6 -6z"/>
<path d="M8190 6760 c-9 -6 -10 -10 -3 -10 6 0 15 5 18 10 8 12 4 12 -15 0z"/>
<path d="M7232 8330 c-12 -20 -12 -21 13 -4 28 18 31 24 12 24 -7 0 -18 -9
-25 -20z"/>
<path d="M10520 9181 c0 -5 5 -13 10 -16 6 -3 10 -2 10 4 0 5 -4 13 -10 16 -5
3 -10 2 -10 -4z"/>
<path d="M10593 9074 c-17 -18 -16 -19 7 -21 21 -2 24 5 12 23 -5 9 -10 8 -19
-2z"/>
<path d="M10280 9025 c0 -8 4 -15 10 -15 5 0 7 7 4 15 -4 8 -8 15 -10 15 -2 0
-4 -7 -4 -15z"/>
<path d="M10563 9013 c-17 -6 -16 -30 1 -36 10 -4 12 0 8 15 -3 14 -1 19 6 14
7 -4 12 -2 12 3 0 12 -7 13 -27 4z"/>
<path d="M10606 9003 c-11 -11 -6 -23 9 -23 8 0 15 4 15 9 0 13 -16 22 -24 14z"/>
<path d="M10270 8988 c0 -2 9 -11 20 -21 11 -9 20 -13 20 -7 0 5 -9 14 -20 20
-11 6 -20 9 -20 8z"/>
<path d="M10530 8947 c0 -11 51 -57 63 -57 7 0 4 5 -6 11 -12 7 -16 17 -12 32
5 17 4 18 -4 8 -8 -12 -12 -12 -25 -2 -9 8 -16 11 -16 8z"/>
<path d="M10480 8922 c0 -5 7 -9 15 -9 8 0 12 4 9 9 -3 4 -9 8 -15 8 -5 0 -9
-4 -9 -8z"/>
<path d="M10590 8640 c0 -5 5 -10 11 -10 5 0 7 5 4 10 -3 6 -8 10 -11 10 -2 0
-4 -4 -4 -10z"/>
<path d="M10201 8984 c0 -11 3 -14 6 -6 3 7 2 16 -1 19 -3 4 -6 -2 -5 -13z"/>
<path d="M6483 8075 c0 -22 2 -30 4 -17 2 12 2 30 0 40 -3 9 -5 -1 -4 -23z"/>
<path d="M6328 8079 c-30 -17 -20 -27 16 -15 19 6 32 14 30 18 -7 11 -25 10
-46 -3z"/>
<path d="M6392 8040 c-7 -11 -8 -20 -3 -20 6 0 13 5 16 10 4 6 11 7 17 4 6 -4
9 -1 6 6 -7 22 -22 22 -36 0z"/>
<path d="M6488 8005 c-3 -14 -1 -25 3 -25 5 0 9 11 9 25 0 14 -2 25 -4 25 -2
0 -6 -11 -8 -25z"/>
<path d="M6501 7954 c0 -11 3 -14 6 -6 3 7 2 16 -1 19 -3 4 -6 -2 -5 -13z"/>
<path d="M6417 7933 c-4 -3 -6 -22 -6 -42 l1 -36 8 40 c8 42 8 49 -3 38z"/>
<path d="M6511 7914 c0 -11 3 -14 6 -6 3 7 2 16 -1 19 -3 4 -6 -2 -5 -13z"/>
<path d="M13476 6823 c-6 -14 -5 -15 5 -6 7 7 10 15 7 18 -3 3 -9 -2 -12 -12z"/>
<path d="M12853 6493 c9 -2 23 -2 30 0 6 3 -1 5 -18 5 -16 0 -22 -2 -12 -5z"/>
<path d="M11880 6270 c8 -5 20 -10 25 -10 6 0 3 5 -5 10 -8 5 -19 10 -25 10
-5 0 -3 -5 5 -10z"/>
<path d="M13470 6244 c0 -5 -4 -34 -9 -64 -4 -30 -5 -80 -2 -110 6 -49 7 -43
14 59 4 63 5 117 2 119 -3 3 -5 1 -5 -4z"/>
<path d="M11980 6236 c0 -2 7 -7 16 -10 8 -3 12 -2 9 4 -6 10 -25 14 -25 6z"/>
<path d="M13542 6163 c-14 -37 -25 -93 -18 -93 7 0 39 110 33 116 -2 3 -9 -8
-15 -23z"/>
<path d="M12200 6160 c0 -5 5 -10 10 -10 6 0 10 5 10 10 0 6 -4 10 -10 10 -5
0 -10 -4 -10 -10z"/>
<path d="M13050 6104 c-30 -19 -50 -34 -45 -34 12 0 115 59 115 65 0 10 -16 3
-70 -31z"/>
<path d="M12341 6116 c2 -2 54 -18 116 -36 l112 -33 7 -56 c12 -109 23 -130
18 -33 -6 85 -5 92 12 93 22 1 -87 32 -191 54 -76 16 -80 17 -74 11z"/>
<path d="M12270 6051 c0 -6 9 -15 20 -21 13 -7 20 -7 20 -1 0 6 -9 15 -20 21
-13 7 -20 7 -20 1z"/>
<path d="M13330 6054 c0 -6 4 -24 9 -40 5 -16 19 -62 31 -102 33 -105 36 -81
4 29 -25 91 -43 136 -44 113z"/>
<path d="M12360 5927 c0 -11 30 -67 35 -67 6 0 -16 52 -27 65 -4 5 -8 6 -8 2z"/>
<path d="M12602 5810 c0 -19 2 -27 5 -17 2 9 2 25 0 35 -3 9 -5 1 -5 -18z"/>
<path d="M13479 5771 c4 -74 8 -72 13 10 3 35 0 56 -6 56 -7 0 -10 -24 -7 -66z"/>
<path d="M13401 5814 c0 -11 3 -14 6 -6 3 7 2 16 -1 19 -3 4 -6 -2 -5 -13z"/>
<path d="M12502 5795 c0 -16 2 -22 5 -12 2 9 2 23 0 30 -3 6 -5 -1 -5 -18z"/>
<path d="M12511 5734 c0 -11 3 -14 6 -6 3 7 2 16 -1 19 -3 4 -6 -2 -5 -13z"/>
<path d="M12611 5644 c0 -11 3 -14 6 -6 3 7 2 16 -1 19 -3 4 -6 -2 -5 -13z"/>
<path d="M13481 5634 c0 -11 3 -14 6 -6 3 7 2 16 -1 19 -3 4 -6 -2 -5 -13z"/>
<path d="M12614 5505 c0 -49 1 -71 3 -48 2 23 2 64 0 90 -2 26 -3 8 -3 -42z"/>
<path d="M13482 5555 c0 -16 2 -22 5 -12 2 9 2 23 0 30 -3 6 -5 -1 -5 -18z"/>
<path d="M12541 5566 c-1 -5 10 -41 23 -80 14 -39 39 -139 56 -221 49 -241 66
-304 108 -415 55 -144 119 -290 136 -309 7 -9 17 -26 20 -38 4 -13 11 -23 15
-23 5 0 52 -87 106 -192 54 -106 101 -195 105 -198 12 -9 71 -161 114 -291 23
-69 49 -134 59 -143 9 -10 17 -22 17 -28 0 -14 -62 -82 -118 -130 -24 -21 -40
-38 -37 -38 14 0 123 80 128 95 11 26 24 16 31 -23 3 -21 15 -49 26 -62 l20
-23 16 39 c25 60 28 98 10 113 -9 7 -16 25 -16 39 0 32 35 186 65 282 13 41
31 120 42 175 l18 100 6 -110 5 -110 3 105 c5 198 0 1265 -6 1304 -4 27 -8 34
-14 23 -6 -10 -34 -17 -86 -22 -43 -4 -143 -15 -223 -26 -80 -10 -176 -21
-213 -24 -38 -3 -78 -9 -90 -14 -25 -9 -68 -8 -84 2 -6 4 -23 3 -37 -3 -14 -5
-33 -7 -41 -4 -8 4 -22 1 -30 -6 -32 -27 -48 -8 -72 89 -21 85 -60 189 -62
167z"/>
<path d="M11961 4525 c0 -5 11 -28 24 -50 14 -22 25 -35 25 -30 0 6 -11 28
-25 50 -13 22 -24 36 -24 30z"/>
<path d="M14182 4400 c-17 -33 -26 -58 -21 -55 10 7 34 50 49 90 17 45 2 27
-28 -35z"/>
<path d="M14135 4320 c-3 -5 -1 -10 4 -10 6 0 11 5 11 10 0 6 -2 10 -4 10 -3
0 -8 -4 -11 -10z"/>
<path d="M14087 4229 c-9 -17 -17 -36 -17 -42 1 -7 10 5 21 26 24 46 21 59 -4
16z"/>
<path d="M13499 3963 c0 -5 -2 -15 -3 -23 -2 -8 0 -24 5 -35 6 -15 8 -9 8 23
1 23 -1 42 -4 42 -3 0 -5 -3 -6 -7z"/>
<path d="M12808 3313 c7 -3 16 -2 19 1 4 3 -2 6 -13 5 -11 0 -14 -3 -6 -6z"/>
<path d="M13825 2990 c-3 -5 -1 -10 4 -10 6 0 11 5 11 10 0 6 -2 10 -4 10 -3
0 -8 -4 -11 -10z"/>
<path d="M15822 2870 c0 -14 2 -19 5 -12 2 6 2 18 0 25 -3 6 -5 1 -5 -13z"/>
<path d="M15832 2820 c0 -14 2 -19 5 -12 2 6 2 18 0 25 -3 6 -5 1 -5 -13z"/>
<path d="M13288 2763 c7 -3 16 -2 19 1 4 3 -2 6 -13 5 -11 0 -14 -3 -6 -6z"/>
<path d="M7770 5887 c0 -8 7 -14 15 -14 8 0 15 6 15 14 0 7 -7 13 -15 13 -8 0
-15 -6 -15 -13z"/>
<path d="M7802 5830 c0 -14 2 -19 5 -12 2 6 2 18 0 25 -3 6 -5 1 -5 -13z"/>
<path d="M8096 5557 c3 -10 9 -15 12 -12 3 3 0 11 -7 18 -10 9 -11 8 -5 -6z"/>
<path d="M14777 3643 c-12 -11 -8 -23 8 -23 8 0 15 7 15 15 0 16 -12 20 -23 8z"/>
<path d="M13301 9765 c8 -8 44 -34 79 -58 40 -25 94 -76 139 -129 41 -48 77
-85 79 -83 8 8 -49 78 -129 158 -82 80 -84 97 -8 49 79 -50 156 -159 147 -207
-4 -21 17 -64 26 -54 13 12 9 78 -5 114 -17 41 -93 118 -164 166 -38 25 -131
59 -164 59 -14 0 -14 -2 0 -15z"/>
<path d="M10545 9510 c-3 -5 -1 -10 4 -10 6 0 11 5 11 10 0 6 -2 10 -4 10 -3
0 -8 -4 -11 -10z"/>
<path d="M10595 9390 c3 -5 8 -10 11 -10 2 0 4 5 4 10 0 6 -5 10 -11 10 -5 0
-7 -4 -4 -10z"/>
<path d="M10705 9370 c3 -5 15 -10 26 -10 10 0 19 -7 19 -15 0 -8 5 -15 10
-15 20 0 10 38 -12 44 -34 9 -50 7 -43 -4z"/>
<path d="M10680 9324 c0 -8 5 -12 10 -9 6 3 10 10 10 16 0 5 -4 9 -10 9 -5 0
-10 -7 -10 -16z"/>
<path d="M10682 9280 c7 -10 14 -18 15 -16 6 6 -9 36 -18 36 -5 0 -4 -9 3 -20z"/>
<path d="M10710 9230 c6 -11 13 -20 16 -20 2 0 0 9 -6 20 -6 11 -13 20 -16 20
-2 0 0 -9 6 -20z"/>
<path d="M10746 9227 c3 -10 9 -15 12 -12 3 3 0 11 -7 18 -10 9 -11 8 -5 -6z"/>
<path d="M10771 9135 c28 -51 29 -51 29 -34 0 8 -12 28 -26 44 l-26 30 23 -40z"/>
<path d="M10790 9151 c0 -6 5 -13 10 -16 6 -3 10 1 10 9 0 9 -4 16 -10 16 -5
0 -10 -4 -10 -9z"/>
<path d="M11130 8880 c0 -11 5 -20 10 -20 6 0 10 9 10 20 0 11 -4 20 -10 20
-5 0 -10 -9 -10 -20z"/>
<path d="M10950 8810 c0 -5 5 -10 11 -10 5 0 7 5 4 10 -3 6 -8 10 -11 10 -2 0
-4 -4 -4 -10z"/>
<path d="M12793 8745 c0 -22 2 -30 4 -17 2 12 2 30 0 40 -3 9 -5 -1 -4 -23z"/>
<path d="M12792 8620 c1 -66 2 -69 8 -30 5 37 8 41 15 25 26 -63 95 -246 95
-254 0 -5 4 -12 9 -15 14 -9 -38 164 -70 230 -16 34 -29 66 -29 71 0 5 -7 18
-15 29 -13 17 -14 12 -13 -56z"/>
<path d="M11960 8633 c0 -31 6 -49 22 -65 l21 -21 -6 24 c-4 13 -7 33 -7 45 0
11 -7 29 -15 40 -13 18 -14 16 -15 -23z"/>
<path d="M11753 8536 c4 -10 7 -41 8 -69 1 -47 2 -49 10 -22 10 34 2 92 -14
102 -7 4 -8 0 -4 -11z"/>
<path d="M12001 8514 c0 -11 3 -14 6 -6 3 7 2 16 -1 19 -3 4 -6 -2 -5 -13z"/>
<path d="M12133 8495 c0 -22 2 -30 4 -17 2 12 2 30 0 40 -3 9 -5 -1 -4 -23z"/>
<path d="M12192 8453 c46 -87 65 -99 23 -15 -20 39 -41 72 -46 72 -4 0 6 -26
23 -57z"/>
<path d="M12793 8400 c0 -36 2 -50 4 -32 2 17 2 47 0 65 -2 17 -4 3 -4 -33z"/>
<path d="M11983 8390 c0 -36 2 -50 4 -32 2 17 2 47 0 65 -2 17 -4 3 -4 -33z"/>
<path d="M11761 8394 c0 -11 3 -14 6 -6 3 7 2 16 -1 19 -3 4 -6 -2 -5 -13z"/>
<path d="M12980 8375 c0 -8 4 -15 10 -15 5 0 7 7 4 15 -4 8 -8 15 -10 15 -2 0
-4 -7 -4 -15z"/>
<path d="M11811 8370 c0 -8 4 -22 9 -30 12 -18 12 -2 0 25 -6 13 -9 15 -9 5z"/>
<path d="M12254 8347 c7 -23 69 -117 74 -112 2 2 -15 32 -38 67 -23 34 -39 55
-36 45z"/>
<path d="M13001 8314 c0 -11 3 -14 6 -6 3 7 2 16 -1 19 -3 4 -6 -2 -5 -13z"/>
<path d="M12400 8303 c0 -13 3 -23 8 -23 4 0 20 -11 35 -25 38 -36 34 -16 -8
31 -31 35 -34 37 -35 17z"/>
<path d="M12781 8304 c0 -11 3 -14 6 -6 3 7 2 16 -1 19 -3 4 -6 -2 -5 -13z"/>
<path d="M11772 8280 c0 -19 2 -27 5 -17 2 9 2 25 0 35 -3 9 -5 1 -5 -18z"/>
<path d="M12375 8180 c10 -11 20 -20 23 -20 3 0 -3 9 -13 20 -10 11 -20 20
-23 20 -3 0 3 -9 13 -20z"/>
<path d="M13582 8160 c0 -19 2 -27 5 -17 2 9 2 25 0 35 -3 9 -5 1 -5 -18z"/>
<path d="M13351 7994 c0 -11 3 -14 6 -6 3 7 2 16 -1 19 -3 4 -6 -2 -5 -13z"/>
<path d="M13054 7969 c-5 -9 1 -10 105 -29 34 -6 70 -14 80 -17 9 -3 7 2 -6
11 -26 19 -171 48 -179 35z"/>
<path d="M12008 7903 c7 -3 16 -2 19 1 4 3 -2 6 -13 5 -11 0 -14 -3 -6 -6z"/>
<path d="M11943 7888 c-96 -41 -135 -60 -130 -65 4 -3 28 1 54 10 26 8 61 18
77 22 24 5 27 8 15 16 -10 8 -3 9 26 6 22 -3 49 -2 60 3 15 5 6 8 -32 11 -29
2 -61 1 -70 -3z"/>
<path d="M11791 7824 c0 -11 3 -14 6 -6 3 7 2 16 -1 19 -3 4 -6 -2 -5 -13z"/>
<path d="M13612 7800 c0 -14 2 -19 5 -12 2 6 2 18 0 25 -3 6 -5 1 -5 -13z"/>
<path d="M11486 7705 c7 -45 19 -72 27 -59 2 5 -4 29 -14 54 l-20 45 7 -40z"/>
<path d="M13361 7624 c0 -11 3 -14 6 -6 3 7 2 16 -1 19 -3 4 -6 -2 -5 -13z"/>
<path d="M8894 7622 c4 -7 2 -12 -4 -12 -6 0 -9 -4 -6 -9 10 -16 139 -33 166
-22 25 9 25 9 -14 26 -50 21 -152 33 -142 17z m124 -29 c-10 -2 -26 -2 -35 0
-10 3 -2 5 17 5 19 0 27 -2 18 -5z"/>
<path d="M11128 7553 c-8 -10 -19 -25 -23 -33 -8 -13 -7 -13 9 -1 16 14 41 51
33 51 -2 0 -11 -8 -19 -17z"/>
<path d="M11077 7526 c-5 -15 -6 -31 -3 -34 8 -8 18 25 14 45 -3 13 -6 10 -11
-11z"/>
<path d="M9971 7512 c-27 -19 22 -30 124 -27 118 4 117 4 86 16 -35 14 -193
22 -210 11z"/>
<path d="M9928 7493 c7 -3 16 -2 19 1 4 3 -2 6 -13 5 -11 0 -14 -3 -6 -6z"/>
<path d="M12240 7310 c25 -8 97 -13 89 -6 -2 2 -29 6 -59 9 -36 4 -46 3 -30
-3z"/>
<path d="M12725 7270 c-33 -10 -78 -19 -99 -19 -63 -1 -36 -10 50 -16 43 -3
90 -10 104 -15 14 -5 70 -16 125 -25 55 -9 117 -21 139 -26 21 -6 45 -7 55 -4
22 10 -5 19 -159 56 -68 17 -134 36 -145 42 -19 10 -19 11 5 18 19 5 20 7 5 7
-11 0 -47 -8 -80 -18z"/>
<path d="M10480 7145 c-14 -8 -55 -26 -92 -41 -38 -14 -70 -29 -73 -34 -3 -4
16 0 43 10 76 29 162 68 162 74 0 9 -13 6 -40 -9z"/>
<path d="M9278 7028 c5 -5 16 -8 23 -6 8 3 3 7 -10 11 -17 4 -21 3 -13 -5z"/>
<path d="M9350 7011 c8 -5 35 -11 60 -14 l45 -5 -40 13 c-47 16 -89 20 -65 6z"/>
<path d="M10075 7000 c-13 -5 -14 -9 -5 -9 8 0 24 4 35 9 13 5 14 9 5 9 -8 0
-24 -4 -35 -9z"/>
<path d="M9465 6990 c3 -5 14 -10 23 -10 15 0 15 2 2 10 -20 13 -33 13 -25 0z"/>
<path d="M9854 6949 c-3 -6 -27 -21 -53 -32 -76 -34 -23 -29 84 8 l100 34 -62
1 c-35 0 -65 -5 -69 -11z"/>
<path d="M8675 6890 c3 -5 8 -10 11 -10 2 0 4 5 4 10 0 6 -5 10 -11 10 -5 0
-7 -4 -4 -10z"/>
<path d="M12945 6810 c-8 -13 5 -13 25 0 13 8 13 10 -2 10 -9 0 -20 -4 -23
-10z"/>
<path d="M12930 6773 c0 -10 4 -14 8 -8 4 6 11 13 16 18 5 4 2 7 -7 7 -10 0
-17 -8 -17 -17z"/>
<path d="M12972 6770 c-7 -12 -8 -20 -2 -20 5 0 10 5 10 10 0 6 7 10 15 10 8
0 15 5 15 10 0 17 -25 11 -38 -10z"/>
<path d="M6648 6663 c7 -3 16 -2 19 1 4 3 -2 6 -13 5 -11 0 -14 -3 -6 -6z"/>
<path d="M7230 6152 c0 -6 5 -23 11 -39 6 -15 23 -77 39 -138 15 -60 44 -162
63 -225 19 -63 40 -140 47 -170 35 -161 224 -729 237 -716 3 2 -11 53 -31 113
-34 106 -128 399 -165 518 -11 33 -22 76 -26 95 -15 77 -156 555 -168 566 -4
4 -7 2 -7 -4z"/>
<path d="M7661 5394 c0 -11 3 -14 6 -6 3 7 2 16 -1 19 -3 4 -6 -2 -5 -13z"/>
<path d="M6281 5229 c-1 -11 27 -78 91 -219 16 -36 35 -78 43 -95 30 -70 47
-103 81 -160 38 -62 147 -227 199 -300 17 -23 52 -75 79 -116 27 -41 57 -83
66 -94 29 -32 140 -238 140 -259 0 -10 11 -40 25 -68 24 -48 68 -198 60 -206
-9 -10 -47 13 -101 60 -65 56 -135 104 -203 137 -50 24 -51 24 -51 14 0 -5 20
-16 44 -26 24 -10 68 -39 96 -65 l52 -48 -55 -2 c-50 -2 -107 6 -272 38 -94
18 -120 22 -115 16 3 -3 86 -21 184 -41 163 -32 250 -61 346 -114 20 -11 17
-24 -9 -37 -37 -19 0 -24 93 -13 89 11 91 10 210 -47 16 -8 34 -14 41 -14 6 0
18 -15 27 -32 14 -31 13 -38 -13 -117 -16 -47 -29 -92 -29 -100 1 -18 40 56
40 75 0 10 17 48 37 83 2 2 9 -1 16 -7 7 -6 -2 18 -20 54 -18 37 -33 72 -33
79 0 7 -14 41 -30 76 -29 61 -30 62 -24 24 5 -36 4 -38 -9 -22 -8 9 -19 17
-25 17 -6 0 -12 4 -14 9 -1 5 -31 23 -65 40 -62 31 -83 53 -83 88 0 23 -52
134 -73 154 -8 9 -33 45 -55 80 -21 35 -104 160 -183 278 -79 117 -169 251
-200 296 -55 82 -109 180 -177 320 -113 234 -131 269 -131 264z m604 -1459 c3
-5 -1 -10 -9 -10 -9 0 -16 5 -16 10 0 6 4 10 9 10 6 0 13 -4 16 -10z m240 -68
c-3 -3 -11 0 -18 7 -9 10 -8 11 6 5 10 -3 15 -9 12 -12z m136 -39 c13 -17 12
-17 -4 -4 -16 13 -22 13 -40 1 -20 -12 -21 -12 -8 3 17 22 35 21 52 0z m59
-49 c0 -8 -4 -12 -10 -9 -5 3 -10 13 -10 21 0 8 5 12 10 9 6 -3 10 -13 10 -21z"/>
<path d="M7643 5125 c-19 -125 -25 -203 -15 -209 5 -3 14 48 21 112 16 143 11
213 -6 97z"/>
<path d="M7811 4414 c0 -11 3 -14 6 -6 3 7 2 16 -1 19 -3 4 -6 -2 -5 -13z"/>
<path d="M5740 4267 c0 -7 8 -17 19 -24 17 -11 18 -10 7 13 -12 26 -26 32 -26
11z"/>
<path d="M7171 4119 c0 -13 4 -33 9 -44 7 -14 8 -8 3 20 -7 46 -13 59 -12 24z"/>
<path d="M7191 4025 c1 -21 27 -98 28 -80 0 6 -6 30 -13 55 -8 25 -15 36 -15
25z"/>
<path d="M5433 4002 c-15 -9 -5 -59 13 -66 19 -7 29 20 14 39 -6 8 -9 19 -5
25 7 12 -5 13 -22 2z"/>
<path d="M6619 3964 c40 -19 75 -33 78 -31 5 6 -119 67 -137 67 -8 0 18 -16
59 -36z"/>
<path d="M6052 3881 c-11 -7 -11 -9 0 -13 19 -8 78 3 78 13 0 11 -61 11 -78 0z"/>
<path d="M6308 3863 c7 -3 16 -2 19 1 4 3 -2 6 -13 5 -11 0 -14 -3 -6 -6z"/>
<path d="M6375 3850 c17 -4 39 -8 50 -8 l20 -1 -20 9 c-11 5 -33 8 -50 8 l-30
0 30 -8z"/>
<path d="M6903 3629 c10 -6 23 -6 33 -1 12 7 8 9 -18 10 -26 1 -30 -1 -15 -9z"/>
<path d="M7440 3426 c0 -2 8 -10 18 -17 15 -13 16 -12 3 4 -13 16 -21 21 -21
13z"/>
<path d="M4140 3210 c-9 -6 -10 -10 -3 -10 6 0 15 5 18 10 8 12 4 12 -15 0z"/>
<path d="M4508 3213 c7 -3 16 -2 19 1 4 3 -2 6 -13 5 -11 0 -14 -3 -6 -6z"/>
<path d="M7270 3205 c-7 -9 -10 -18 -7 -21 3 -3 10 4 17 15 13 25 8 27 -10 6z"/>
<path d="M4575 3200 c40 -9 142 -13 134 -6 -2 2 -42 6 -89 9 -59 3 -73 3 -45
-3z"/>
<path d="M4843 3183 c9 -2 23 -2 30 0 6 3 -1 5 -18 5 -16 0 -22 -2 -12 -5z"/>
<path d="M4908 3173 c-16 -2 -28 -9 -28 -14 0 -11 54 -3 80 12 16 9 0 10 -52
2z"/>
<path d="M7240 3143 c-37 -81 -59 -133 -55 -133 6 0 77 151 72 156 -2 2 -10
-8 -17 -23z"/>
<path d="M4790 3119 c-12 -22 -8 -35 8 -25 13 8 22 46 11 46 -4 0 -13 -9 -19
-21z"/>
<path d="M5463 3103 c9 -2 23 -2 30 0 6 3 -1 5 -18 5 -16 0 -22 -2 -12 -5z"/>
<path d="M7795 3100 c-3 -5 -2 -10 4 -10 5 0 13 5 16 10 3 6 2 10 -4 10 -5 0
-13 -4 -16 -10z"/>
<path d="M7860 3106 c0 -2 12 -12 28 -21 l27 -18 -19 21 c-17 20 -36 29 -36
18z"/>
<path d="M7760 3085 c7 -8 17 -15 22 -15 5 0 3 7 -6 15 -8 8 -18 15 -22 15 -3
0 -1 -7 6 -15z"/>
<path d="M5522 3075 c-17 -19 -1 -19 24 0 14 11 15 14 4 14 -8 0 -21 -6 -28
-14z"/>
<path d="M5768 3043 c6 -2 18 -2 25 0 6 3 1 5 -13 5 -14 0 -19 -2 -12 -5z"/>
<path d="M7939 3033 c-6 -123 -4 -133 16 -132 l20 0 -20 9 c-19 8 -19 8 -1 16
11 4 27 2 37 -4 22 -14 53 -16 44 -3 -3 5 -1 12 5 16 5 3 10 1 10 -5 0 -6 11
-15 25 -22 13 -6 23 -14 21 -17 -2 -3 14 -7 35 -7 43 -2 44 10 2 21 -14 3 -51
28 -80 55 -29 27 -67 59 -83 70 -28 20 -30 20 -31 3z"/>
<path d="M5795 3019 l-20 -21 30 8 c42 10 75 23 75 29 0 14 -67 1 -85 -16z"/>
<path d="M5900 3020 c0 -5 7 -7 15 -4 8 4 15 8 15 10 0 2 -7 4 -15 4 -8 0 -15
-4 -15 -10z"/>
<path d="M5974 3008 c10 -8 16 -20 12 -26 -4 -7 4 -9 27 -5 24 4 48 -2 86 -22
75 -37 74 -25 -1 20 -63 38 -166 65 -124 33z"/>
<path d="M7121 2888 c-5 -13 -18 -47 -30 -76 -24 -61 -28 -94 -5 -42 24 52 54
140 48 140 -2 0 -8 -10 -13 -22z"/>
<path d="M7941 2871 c7 -10 21 -18 33 -18 12 1 46 -6 76 -14 107 -30 151 -39
188 -38 33 2 34 2 7 6 -36 5 -244 59 -281 73 -34 13 -36 13 -23 -9z"/>
<path d="M6470 2769 c0 -5 5 -7 10 -4 6 3 10 8 10 11 0 2 -4 4 -10 4 -5 0 -10
-5 -10 -11z"/>
<path d="M6750 2726 c0 -9 40 -13 46 -5 3 5 -6 9 -20 9 -14 0 -26 -2 -26 -4z"/>
<path d="M6820 2710 c8 -5 26 -9 40 -9 23 0 23 1 5 9 -11 5 -29 9 -40 9 -17 1
-17 -1 -5 -9z"/>
<path d="M8672 2426 c-1 -38 3 -98 10 -133 12 -64 11 -65 -13 -84 -19 -15 -39
-19 -99 -18 -76 0 -127 -5 -137 -15 -3 -3 44 -4 105 -2 85 2 117 7 138 20 25
17 26 21 19 75 -4 31 -11 94 -15 141 l-7 85 -1 -69z"/>
<path d="M7971 2375 c1 -11 5 -31 9 -45 8 -24 8 -24 9 5 0 17 -4 37 -9 45 -8
12 -10 11 -9 -5z"/>
<path d="M2831 2323 c1 -5 23 -27 49 -51 47 -42 50 -43 129 -47 45 -2 88 -9
96 -15 8 -7 25 -10 38 -6 16 4 28 -1 40 -14 9 -11 22 -17 30 -14 7 2 26 -7 41
-21 l27 -25 41 21 c40 20 42 21 55 3 7 -10 13 -26 13 -35 0 -13 13 -19 60 -24
42 -5 70 -14 89 -31 16 -13 38 -24 49 -24 12 0 24 -4 27 -10 3 -5 32 -10 63
-10 31 0 73 -4 92 -9 73 -19 90 -21 90 -12 0 11 50 62 94 96 19 15 55 28 87
33 l54 8 -37 7 c-64 13 -110 -7 -172 -74 -55 -59 -58 -60 -88 -50 -17 6 -57
11 -89 11 -40 0 -59 4 -59 12 0 7 21 35 48 62 51 54 31 45 -33 -15 l-40 -38
-60 24 c-33 13 -81 26 -106 29 -39 6 -48 11 -60 38 -21 47 -43 57 -80 35 -35
-20 -34 -27 -10 68 15 61 4 54 -14 -9 -17 -58 -26 -66 -51 -41 -8 8 -21 12
-28 9 -8 -3 -25 1 -38 10 -15 10 -62 18 -132 22 l-109 7 -49 44 c-49 43 -59
49 -57 36z"/>
<path d="M7396 2313 c-6 -14 -5 -15 5 -6 7 7 10 15 7 18 -3 3 -9 -2 -12 -12z"/>
<path d="M8005 2265 c4 -11 9 -64 12 -118 7 -114 1 -126 -81 -153 -28 -10 -45
-19 -39 -21 7 -3 37 7 67 20 49 23 56 30 66 69 9 30 9 64 3 111 l-9 67 30 2
c17 1 39 2 49 1 9 0 17 7 17 14 0 11 -11 12 -51 7 -38 -5 -54 -3 -61 7 -7 10
-8 9 -3 -6z"/>
<path d="M8160 2238 c0 -10 -5 -18 -11 -18 -5 0 -7 -4 -4 -10 3 -5 17 -10 30
-10 13 0 27 5 30 10 3 6 -1 10 -9 10 -8 0 -20 8 -25 18 -10 16 -10 16 -11 0z"/>
<path d="M8225 2230 c-3 -5 -1 -10 6 -10 7 0 21 -7 31 -17 10 -9 18 -12 18 -7
-1 15 -48 45 -55 34z"/>
<path d="M3800 2201 c0 -11 4 -21 9 -21 18 0 21 18 6 30 -13 10 -15 9 -15 -9z"/>
<path d="M8364 2199 c-4 -7 -21 -9 -40 -6 -19 3 -34 2 -34 -4 0 -10 29 -11 83
-2 26 4 34 9 25 14 -18 12 -26 11 -34 -2z"/>
<path d="M4140 2116 c25 -7 54 -17 65 -20 12 -5 10 -2 -5 7 -14 9 -43 18 -65
21 l-40 6 45 -14z"/>
<path d="M7276 2083 c-6 -14 -5 -15 5 -6 7 7 10 15 7 18 -3 3 -9 -2 -12 -12z"/>
<path d="M9260 2090 c14 -9 109 -15 99 -6 -2 2 -29 6 -59 9 -37 4 -50 3 -40
-3z"/>
<path d="M4235 2080 c3 -5 11 -10 16 -10 6 0 7 5 4 10 -3 6 -11 10 -16 10 -6
0 -7 -4 -4 -10z"/>
<path d="M4290 2051 c0 -6 8 -15 18 -20 10 -5 40 -32 67 -60 40 -41 58 -52
102 -61 44 -10 56 -9 75 4 32 23 57 20 70 -9 11 -25 28 -34 28 -15 0 5 21 21
46 36 40 24 48 25 70 14 13 -8 24 -19 24 -25 0 -7 30 -16 75 -22 41 -6 93 -21
116 -32 l41 -22 43 36 c50 41 59 42 100 15 17 -11 41 -19 55 -19 22 1 23 2 5
8 -20 6 -126 60 -134 67 -3 2 6 16 20 31 13 14 17 22 9 18 -24 -14 -60 -49
-60 -60 0 -5 -10 -23 -23 -39 -22 -27 -24 -28 -58 -13 -19 8 -61 17 -94 21
-49 6 -66 14 -95 41 -19 19 -47 38 -62 44 -25 9 -30 7 -60 -30 -26 -32 -33
-37 -40 -24 -11 19 -58 19 -84 0 -32 -24 -66 -17 -119 25 -89 70 -135 101
-135 91z"/>
<path d="M5149 2023 c-13 -16 -12 -17 4 -4 9 7 17 15 17 17 0 8 -8 3 -21 -13z"/>
<path d="M5958 1997 c-50 -78 -133 -154 -210 -193 -71 -36 -190 -84 -207 -84
-10 0 -23 35 -25 65 -1 13 -9 21 -23 23 -13 2 -23 10 -23 20 0 39 -78 90 -95
62 -3 -5 -26 -10 -50 -10 -38 0 -43 -2 -38 -20 6 -23 19 -26 26 -6 3 7 26 17
52 20 40 6 49 4 70 -16 14 -13 25 -31 25 -40 0 -9 9 -19 19 -23 13 -4 21 -19
26 -50 5 -35 10 -45 25 -45 10 0 73 22 139 49 124 50 206 101 242 152 11 16
26 29 32 29 7 0 23 6 37 13 28 14 41 15 88 3 35 -8 40 -17 17 -36 -23 -19 -19
-25 33 -43 44 -16 78 -17 102 -2 6 4 10 -8 10 -28 0 -30 4 -35 30 -40 16 -4
36 -4 43 -1 8 3 20 -2 27 -11 7 -8 21 -15 31 -15 10 0 21 -5 24 -10 4 -6 14
-10 23 -8 10 1 34 -4 55 -11 24 -8 42 -9 50 -3 15 11 54 9 91 -7 21 -8 38 -9
59 -1 17 5 40 10 52 10 12 0 30 9 39 19 14 16 23 18 43 10 14 -5 40 -7 58 -3
18 3 61 7 96 8 35 1 93 10 129 19 36 9 94 21 130 27 36 6 83 19 105 29 82 37
106 43 143 37 70 -11 389 46 417 76 7 8 2 9 -15 4 -157 -43 -228 -58 -297 -63
-96 -7 -101 -1 -45 54 21 21 29 31 18 22 -34 -26 -127 -76 -185 -99 -64 -25
-190 -50 -196 -39 -7 10 3 33 42 103 34 60 39 91 7 39 -10 -15 -41 -57 -68
-93 -63 -84 -103 -99 -269 -104 -74 -3 -123 -9 -132 -16 -9 -7 -18 -11 -21 -8
-2 3 -25 1 -51 -3 -31 -6 -50 -5 -60 2 -8 8 -34 9 -73 5 -44 -5 -67 -3 -89 8
-16 9 -36 14 -43 11 -30 -11 -40 11 -36 76 2 35 8 73 12 84 5 11 -7 -2 -26
-30 -18 -27 -39 -64 -47 -82 -16 -38 -35 -34 -48 10 -9 32 -9 32 -69 29 -46
-3 -63 0 -73 12 -12 14 -11 19 3 35 15 17 15 18 -9 29 -42 19 -101 25 -125 12
-32 -17 -35 -6 -10 35 12 20 21 38 18 40 -2 2 -16 -15 -30 -38z"/>
</g>
</svg>
